<svg xmlns="http://www.w3.org/2000/svg" xmlns:xlink="http://www.w3.org/1999/xlink" id="Layer_1" x="0" y="0" version="1.1" viewBox="0 0 512 512" xml:space="preserve">
  <style>
    .st0{clip-path:url(#XMLID_2_);fill:#00468c}
  </style>
  <g id="XMLID_31_">
    <defs>
      <path id="XMLID_32_" d="M40 109h431v292H40z"/>
    </defs>
    <clipPath id="XMLID_2_">
      <use overflow="visible" xlink:href="#XMLID_32_"/>
    </clipPath>
    <path id="XMLID_46_" d="M41 144l1 52c-1 16-2 33 1 50 2 8 12 13 21 11s13-11 11-20c-3-15-1-30 0-44l-1-49c-1-21-34-21-33 0" class="st0"/>
    <path id="XMLID_45_" d="M60 159c5 0 13 1 18-1 3 1 3 0 0-2l1 6v8c0 2 1 2 2-2l-2 2-15 1c-21 0-21 33 0 33 14 0 26-1 36-10 11-9 13-20 12-33-1-11-5-23-15-30-10-8-24-5-37-5-21 0-21 33 0 33" class="st0"/>
    <path id="XMLID_44_" d="M58 205c6 1 13-3 18 0s4 7 4 12v10c5-1 5-2 2-2H59c-21 0-21 33 0 33 12 0 28 3 39-4 13-8 16-24 15-37-1-15-3-28-16-37-5-4-11-7-18-8s-14 1-21 1c-8-1-16 8-16 16 0 9 7 16 16 16" class="st0"/>
    <path id="XMLID_43_" d="M199 111c-36-7-70 15-79 51-4 17-6 38 1 54 3 6 9 11 12 18 5 8 9 15 18 20 15 8 34 11 52 11 18 1 37 1 53-10 27-19 39-54 30-85-5-18-17-34-32-45-16-12-39-14-59-14-21-1-21 32 0 32 11 0 25 1 36 6 9 4 15 12 20 20 8 17 7 37-5 51-7 9-16 12-27 13-12 0-25 0-38-3-4-1-11-2-15-5l-7-11-9-13c-2-5-1-11 0-16 0-12 3-25 12-33 7-7 19-12 29-10 8 2 17-2 20-11 2-8-3-19-12-20" class="st0"/>
    <path id="XMLID_42_" d="M306 128l-1 107c0 21 33 21 33 0l1-107c0-21-33-21-33 0" class="st0"/>
    <path id="XMLID_41_" d="M322 146h12c2 0 9-2 11 0-4-3 1 7 1 9 1 7 1 11-5 16-2 2-6 4-9 3-8-2-18 2-20 11-2 8 3 19 11 20 15 3 28 0 40-9 11-10 17-23 16-38-1-13-4-28-14-37-12-11-29-8-43-8-21 0-21 33 0 33" class="st0"/>
    <path id="XMLID_40_" d="M383 142c-1 32 0 64 1 96 1 21 34 21 33 0-2-32-2-64-2-96 1-21-32-21-32 0" class="st0"/>
    <path id="XMLID_39_" d="M401 155c6-1 15-1 21 3 3 2 3 4 3 8v9c0 2 1 0 1 0-2 2-9 2-11 3l-11 2c-9 1-16 6-16 16 0 8 7 18 16 16 13-1 29-2 41-10 11-8 14-23 13-36-1-14-5-27-17-35-11-7-27-10-40-9-9 1-17 7-17 17 1 8 8 17 17 16" class="st0"/>
    <path id="XMLID_38_" d="M40 271c2 33 3 67 2 100-1 21 32 21 32 0 2-33 1-67-1-100-1-9-7-16-17-16-8 0-17 7-16 16" class="st0"/>
    <path id="XMLID_37_" d="M77 329c5-8 10-13 16-20 7-8 12-18 17-27 11-18-17-34-28-16-5 8-9 17-15 23-7 7-13 15-18 24-11 18 18 34 28 16" class="st0"/>
    <path id="XMLID_36_" d="M60 341c7 5 12 16 16 24 6 11 12 22 20 31 14 16 37-8 23-23-8-9-12-20-18-30-6-12-14-22-25-30-7-5-18-1-22 6-5 8-1 17 6 22" class="st0"/>
    <path id="XMLID_35_" d="M208 258c-32-4-68 12-82 41s-6 70 23 85c28 15 67 21 98 10 14-5 28-14 34-28 8-15 9-34 7-50-1-18-9-33-23-43-16-11-35-9-53-14-21-5-29 27-9 32 16 4 44 0 51 19 4 10 3 22 1 32-2 9-5 14-13 19-20 10-45 6-66-1-7-2-17-6-21-14-3-7-3-18-2-25 4-24 34-33 55-31 8 1 16-8 16-16 0-10-8-15-16-16" class="st0"/>
    <path id="XMLID_34_" d="M379 253c-13-3-26-10-40-9-13 1-25 9-32 20-14 23-13 56-10 82 2 14 4 29 14 40 9 11 23 14 37 15 13 1 31 1 35-15 2-7 0-14 0-21l-2-25c0-8-7-16-16-16-8 0-17 8-16 16a948 948 0 012 39l4-7 7-4c-4 1-15 0-20-1-4 0-7-1-8-5-6-14-6-32-6-46l3-21c1-6 2-13 7-17 2-2 4-2 7-1 9 1 17 6 26 8 20 5 29-27 8-32" class="st0"/>
    <path id="XMLID_33_" d="M414 369l2-99-32 4c8 19 15 39 26 56 5 8 9 17 15 24 4 6 11 11 13 18 3 8 10 13 18 12s15-8 15-16c-2-32-2-65 0-97 1-21-32-21-33 0v97l32-5c-3-9-8-16-14-23s-10-14-15-22c-4-7-9-14-12-22l-13-31c-3-7-9-13-18-11-8 1-14 7-14 16-2 33-3 66-2 99 0 21 33 21 32 0" class="st0"/>
  </g>
</svg>
