<svg xmlns="http://www.w3.org/2000/svg" viewBox="0 0 1040 238.7">
<style>
.primary {
  fill:#009;
  filter: drop-shadow(.75rem .75rem 0px #F00);
}
</style>
<path class="primary" d="M168.5 159.2a51 51 0 0 0-15.1-31.8 33 33 0 0 0 2.2-2c9.2-9.3 8.8-23.8 5.9-35.8-6-24.2-30.5-34.8-53.4-36-26.6-1.5-54 2-80.6 3.4a20 20 0 0 0-8 2 18.5 18.5 0 0 0-6.3.8C2 63.4-1.5 74 .5 84.5a211 211 0 0 1 3.3 61c-1.8 18.7-2.1 36.3 5.7 53.1 1.5 8.8 8 16.5 19.5 16 29.2-1.1 58.9-.8 88-3.8 28.4-2.8 56.7-18.9 51.5-51.6zm-40.1-62l-.3.2c.8-.7.9-.8.3-.1zm-8.5-1.5c1.7.8 2.7 1 3.1 1.8a8.4 8.4 0 0 1 .7 1.7l-1.3.5c-3.2 1.2-6.4 2.2-9.6 3.2a143.2 143.2 0 0 1-20.8 4.4c-16.1 2.2-32.4 2.7-48.7 3.3q-.6-7.6-1.6-15.1c18.6-1 37.1-2 55.7-2.8 7.8-.3 15.3-.4 22.5 3zm-23.7 77L42.4 175a71 71 0 0 1-.4-23.5c16.2-1.3 32.3-3.7 48.6-2.5a162.7 162.7 0 0 1 28.6 4.6 61.4 61.4 0 0 1 6.1 1.8 19.6 19.6 0 0 1 2.3 1.4c.2 1.2 1.7 4.9 1.9 5.9.4 2.2-.2 5 .6 4.5-1.5 1.5-3.6 2-5.6 2.8-8.8 3.1-19.1 2.5-28.3 2.8zM299.6 103.7c-3-17.3-7.9-34.5-17.2-49.6a51.9 51.9 0 0 0-42-24.5L239 29c-36.8-11-52.5 36.2-55 63.5-1.5 17-2.1 35.1.7 52.1 1.4 8.6 4.4 16 7.5 24 3 8.1 4.4 16.6 9.3 23.8 9.6 14 26 20.6 42.5 21.6 18.1 1.1 33.2-4.7 43.2-20.3 16.1-25.3 17.2-61.4 12.4-90.1zM261 151.4a83.6 83.6 0 0 1-4.2 15.8 63.2 63.2 0 0 1-3.2 6.6c-2.2 4 0 .9-2.5 1.2-9.5 1.6-16.8-1.3-19.1-10.1-1.8-6.7-5-12.8-7.1-19.3-2.2-6.5-2.5-13-2.8-19.8a182 182 0 0 1 1.8-39.1c1.1-5.7 2.3-11.7 5.5-16.6l1.4-2a21.8 21.8 0 0 0 4.5.4c10.7-.2 14 5 18.1 14.6a112.4 112.4 0 0 1 8.5 33.2 124.3 124.3 0 0 1-1 35zM399.2 79c-1.5-15.9-6.1-33.2-18.9-44-12.2-10.2-29-8.5-44.3-7.4-11-2.8-24.8 3.2-25.3 17.4a22.7 22.7 0 0 0 0 5.6l4.3 124c.8 25.2 40 23.5 39.1-1.7l-1.1-34a54.4 54.4 0 0 0 28.8-14.1A51.5 51.5 0 0 0 399.2 79zm-44.1 17.3a21.6 21.6 0 0 1-3.5 2.5l-1.1-33a23.9 23.9 0 0 1 6.8-.1c-3-.2 2 9.1 2.4 11.5 1.4 8.2 1.8 13.5-4.6 19.1zM494.2 84.4c-1.8-16.3-7.1-31.9-22-40.7a78 78 0 0 0-48.5-8.5c-8.6 1.1-16 6.5-18 14.6a19.2 19.2 0 0 0-2.6 10.5q1.6 57.3 6.4 114.5c2.1 25 41.3 23.5 39.2-1.7q-1.4-16.4-2.5-32.8a80.4 80.4 0 0 0 34-12.5c13.3-10.1 15.8-27.7 14-43.4zm-51.5-10.6a18.8 18.8 0 0 1 7.8 2.7c3.5 2.3 4 5 4.6 9.6.4 3.2 1.2 7.5.5 10.6v.9c-2.9 1.6-8.8 2.3-11.7 3l-1.2-26.8zM657.4 153.3c-18-8.5-32.1-21.4-47.3-33.8-11.4-9.3-23-17.4-35.8-23.7 4.7-3 9.6-5.7 14.4-8.5 15-8.6 27.5-22.5 40.2-34.1 7.8-7.2 6-21-1.2-27.7-8.4-7.6-19.9-6-27.7 1.2-12.4 11.4-23.7 22.8-38.5 31a196.1 196.1 0 0 0-20 12.7Q539 52.6 535.5 35c-2-10.3-15.5-15.5-24.7-12.6-11 3.6-14.6 14.3-12.6 24.7a512.7 512.7 0 0 1 8.9 113.6c-.3 10.6 10.4 19.2 20.4 18.7 11.2-.5 18.4-9.8 18.7-20.4.3-11 .3-22-.1-32.8 35.7 11.7 59.2 45.9 92.9 61.9 22.7 10.8 41-23.8 18.3-34.7z"/><path class="primary" d="M773 92a111 111 0 0 0-11.8-48.8 44.9 44.9 0 0 0-16.3-16.6c-5.5-3.1-11.5-3.9-17.3-5.6a18.5 18.5 0 0 0-9.5-4.5c-32.5-6-53.5 25.3-59.4 53.4a156.4 156.4 0 0 0-1.2 46.6c1.5 15 4.5 30.7 13.8 43 17.5 23 52.9 35.2 77.8 16.7 25.8-19.1 25.5-55.2 23.8-84.3zm-50.6 54.2c-7 1-16-4.8-20-10.4-6-8.5-6-21.2-6.5-31.2a87.5 87.5 0 0 1 3.2-34.4 38.4 38.4 0 0 1 6.6-12 27.9 27.9 0 0 1 3.4-2.7c7.1 2 15.9 3 19.1 9 5 8.8 5.2 21.2 5.7 31 .6 11.2 4.4 48.5-11.5 50.7z"/><path class="primary" d="M874 105.4c-1.5-10.5-9.2-19.2-20.5-18.7-9.8.4-20.2 9.9-18.7 20.4 1 7.5 2 15 2.8 22.4l.4 3.9a161 161 0 0 1-10.4-.6c-3.3-.3-7-.3-9.6-3.1-4.4-4.6-5.5-15.7-6.6-21.8a148.4 148.4 0 0 1-2.2-24.1c-.1-10.6-.5-32 9.5-38.6 9.6-6.3 29 3.7 39.7 5.5 24.8 4.1 33.6-34 8.7-38.2-15.6-2.6-30.6-9.4-46.8-7.8-14 1.4-26.9 8-35.4 19.4-19.3 26-16.8 65.9-10.8 95.9 3 14.8 7.7 30.1 19.5 40.4 11.9 10.4 27.8 11.5 42.7 11.8 15.1.3 36.6.8 41.4-17.3 2-7.4.1-16-.6-23.4-1-8.7-2-17.4-3.2-26z"/><path class="primary" d="M1023.9 134.3a902.8 902.8 0 0 1-4.3-115.6c.3-10.6-10.4-19.1-20.4-18.7-11.2.5-18.5 9.8-18.7 20.4q-1 33.7.7 67.3c-4.3-4.2-8.3-8.6-12.5-13-8-8.7-16.6-16-23.2-25.7-8.6-12.4-16.9-25-25.3-37.5-11.2-16.7-35.8-7.7-36 11.4-.6 39.6-1.8 79.2 1.3 118.7 2 25 41.1 23.5 39.1-1.7-1.4-19-2-38-2-57 4.7 5.4 9.7 10.5 15 15.7 8.7 8.7 16.1 18.6 25.9 26.2 8.3 6.6 18.8 11.7 24.4 21 9.7 16.3 38 8 36-11.5z"/></svg>
