<svg xmlns="http://www.w3.org/2000/svg" viewBox="0 0 1024 703"><style>.primary{fill:#009}</style><path class="primary" d="M175.7 259c-1.3-25-4.8-48-17.5-67 14.4-18.6 16.9-40.8 14.8-66.2-2.3-27.7-10.6-56.7-34.4-73.4-25.2-17.7-60-11.5-89.2-11a38.8 38.8 0 0 0-20.6 6A33.5 33.5 0 0 0 3.2 83.6a1225 1225 0 0 1 1.4 124.8c-1.9 39.4-4 77.9 3.3 116.9l.6 2.9.1.6a31.2 31.2 0 0 0 3 8.5 36 36 0 0 0 33.7 20.5c29.1.2 69 7.4 95-8.7 30.8-19 37-57 35.4-90.3zM90.8 114c.3-.1.6.1.8.5l-1-.5h.2zm-.1 5.4c1 0 1.8.2 2.6.3.7 3.5 1.2 7.4 1.3 8 .5 5-1.3 12.8.1 17.7l-1 .6a198 198 0 0 1-9.6 2.2q-.1-13.7-.6-27.5a36 36 0 0 0 7.2-1.3zM81 279c-.8-16.3 0-32.8 1-49.2a23.3 23.3 0 0 1 6 2.2c10.4 5.6 8.5 15.9 9 26.8.2 3.3-1.2 13.8-1.1 19.8-4.6-.4-10 0-15 .4zM420.2 159.2c-4.4-35-12.8-70-30-101-18-32.1-47.6-48.7-82.4-53a47 47 0 0 0-2.6-1c-73-25.2-108.7 68-116 122.5a416.8 416.8 0 0 0-3.1 104.7c2.1 17.4 7.3 32.4 12.8 49 5.4 16.3 7.4 33.4 16.7 48.3 18 29 50.4 43.7 83.3 47.1 36.3 3.8 67.2-6.5 88.5-36.9 34.6-49.4 40-121.7 32.8-179.7zm-81.5 92.2a167.1 167.1 0 0 1-9.7 31.4 127.6 127.6 0 0 1-7 13c-4.8 7.9-.2 1.7-5.2 2.3-19.1 2.2-33.6-4.2-37.5-22-3-13.6-8.6-26.1-12.5-39.4-3.8-13.3-4-26.3-3.8-40 .3-26.1 1.1-52.8 7-78.3a91.4 91.4 0 0 1 12.6-32.8l2.8-4a44 44 0 0 0 9 1.2c21.6.7 27.6 11.3 35.2 31a225.7 225.7 0 0 1 14 67.3c1.4 23.5.4 47.3-4.9 70.3zM763.6 116.8c-5.5-51-41.4-91.5-92-102.7-26.4-5.8-53.9-4.3-80.7-4.3l-63.5-.1a44.4 44.4 0 0 0-37.4 4.6c-16.6 9.2-22.3 30.5-17 47.9L468 302.7c-1.1 50.6 77.5 50.6 78.6 0l1.5-68.5c43.8 3.6 89.7-1.7 130.7-17.2 22.3-8.4 45.5-18.8 63.5-34.8 19.1-17 24.1-40.7 21.4-65.4zm-88.1 16a177.3 177.3 0 0 1-38.3 15.1c-28.8 8-58 10-87.5 7.8l1.5-67.4 69.5.1c24.6.2 57.8 1.1 64.4 30.6a14.4 14.4 0 0 1 .7 7.2v.4l-10.3 6.1zm15-9.6l.2-.1-.1.1zM984.9 137.3c-2.3-32.8-11.6-64.6-40.5-83.6-27.4-18-64.6-24.3-96.7-21.3C830.4 33.9 815 44 810 60a38.7 38.7 0 0 0-6 21q-1.7 115.2 3 230.3c2 50.5 80.6 50.7 78.6 0q-1.4-33-2.1-66c24.5-3.4 50-8.7 69.4-22.1 27.6-19.2 34-54.3 31.9-85.9zm-102.5-25.8c5.8 1 11.2 3 15.3 6 7 5.1 7.7 10.7 8.5 19.8.6 6.4 1.7 15 0 21.3-.2 1-.2 1.5 0 1.7-6 3-18 4-23.9 5v-53.8z"/><path class="primary" d="M190.8 634.3c-19-20.7-30.3-47.7-43.8-72a239.6 239.6 0 0 0-40.7-56.1c6.8-8.4 14.1-16.4 21.8-24.8 17-18.8 28.5-43 41.2-64.7 25.6-43.8-42.3-83.4-68-39.7-7 12-13.4 24.7-21 36.5l-1.6-23.2c-1.5-21.2-17-39.3-39.3-39.3-20 0-40.9 18-39.3 39.3a2180.4 2180.4 0 0 1 4.5 239.2c-1.8 50.6 76.8 50.6 78.6 0l.6-19 3.3 6.1c13.9 26 28 51.4 48 73.3 34.3 37.4 89.8-18.4 55.7-55.6z"/><path class="primary" d="M422.7 515c-.4-33.4-3.9-68.7-19.3-98.8a90.2 90.2 0 0 0-31.2-34.8c-10.7-6.7-22.8-8.7-34.2-12.6a37.1 37.1 0 0 0-18.6-10c-64.8-15-109.7 46.2-123.9 102-7.7 30.1-8.2 62.5-6.5 93.4 1.6 30.1 6.3 62 24 87.4 33 47.6 103 75.3 154.4 40.5 53.6-36.2 56-108.6 55.3-167zm-106 104.5c-14.3 1.3-31.8-11-39.2-22.6-11.5-17.7-10.3-43.1-10.4-63.2-.2-23.3.5-46.8 9.4-68.7 3.4-8.3 8.1-17 14.3-23.6 1.8-1.8 5.3-3.7 7.1-5 14 4.5 31.5 7.3 37.5 19.5 9 18.2 8.6 43.1 8.7 62.8.1 22.6 4.6 97.8-27.5 100.8zM542.3 430c13-16.2 34.9-22.9 54.7-25.6 57.2-8 116.1 13.3 172.5 20.1 21 2.6 39.3-19.9 39.3-39.3 0-23.4-18.2-36.8-39.3-39.3-66.8-8-130.1-29.4-198-16.5C506 341.9 462.4 390 446.9 454c-15 61.8-7 143.3 34 194.2 42 52.3 117.9 51.6 179 53.2 34.7.9 96 10.4 111.3-30.6 6.8-18.2 2-40.5 0-59.4-2.3-21.9-5.2-43.6-8.6-65.3-3.2-21-29.6-32.7-48.4-27.5-22.4 6.2-30.7 27.3-27.4 48.4 2.8 18.4 6 37.6 7.8 56.6-20.6.2-41.4-1-61.7-1.9-23.7-1.1-49-1.2-71.4-9.7-41.5-15.5-46.4-83.8-41.8-121.2 2.6-20.6 9.4-44.2 22.7-60.7zM945.3 413.3q-2.3 48.3-2.9 96.7a271.8 271.8 0 0 1-20.2-36.7c-10.5-24.5-20.4-49.2-30.6-73.9-7.4-18-22.2-31.3-43.1-28.1a39.6 39.6 0 0 0-34.1 38.6c-3 79.4-7 158.8-5.2 238.2 1.1 50.6 79.8 50.7 78.6 0-.6-25.6-.6-51.1-.2-76.7 8.3 14.3 16.1 28.8 26.2 42 10.3 13.7 25.9 26.4 32 42.7 6.7 18.3 22.7 31.3 43 28.2 18.6-2.8 35-18.7 34.2-38.6q-4.6-116.2 1-232.4c2.4-50.6-76.3-50.5-78.7 0z"/></svg>
