<?xml version="1.0" encoding="UTF-8" standalone="no"?>
<!DOCTYPE svg PUBLIC "-//W3C//DTD SVG 1.1//EN" "http://www.w3.org/Graphics/SVG/1.1/DTD/svg11.dtd">
<svg version="1.1" xmlns="http://www.w3.org/2000/svg" xmlns:xlink="http://www.w3.org/1999/xlink" preserveAspectRatio="xMidYMid meet" viewBox="-30 -30 60 60">    
<style>
path {
	stroke: #FF0;
	fill: transparent;
    stroke-width: 3px;
} 
</style>
    <path d="M11.51471862572,8.48528137428
          C14.343145750480002,-4.343145750480001
          25.65685424952,4.343145750480001
          28.48528137428,-8.48528137428"></path>
    <path d="M-18.48528137428,8.48528137428
          C-15.656854249519998,-4.343145750480001
          -4.343145750480001,4.343145750480001
          -1.5147186257200005,-8.48528137428"></path>
    <path d="M-8.48528137428,-21.51471862572
          C-5.656854249519999,-34.343145750480005
          5.656854249519999,-25.656854249520002
          8.48528137428,-38.48528137428"></path>
    <path d="M-8.48528137428,38.48528137428
          C-5.656854249519999,25.656854249520002
          5.656854249519999,34.343145750480005
          8.48528137428,21.51471862572"></path>
    <path d="M21.51471862572,-21.51471862572
          C24.34314575048,-34.343145750480005
          35.65685424952,-25.656854249520002
          38.48528137428,-38.48528137428"></path>
    <path d="M21.51471862572,38.48528137428
          C24.34314575048,25.656854249520002
          35.65685424952,34.343145750480005
          38.48528137428,21.51471862572"></path>
    <path d="M-38.48528137428,-21.51471862572
          C-35.65685424952,-34.343145750480005
          -24.34314575048,-25.656854249520002
          -21.51471862572,-38.48528137428"></path>
    <path d="M-38.48528137428,38.48528137428
          C-35.65685424952,25.656854249520002
          -24.34314575048,34.343145750480005
          -21.51471862572,21.51471862572"></path></svg>
