<svg version="1.1" xmlns="http://www.w3.org/2000/svg" xmlns:xlink="http://www.w3.org/1999/xlink" preserveAspectRatio="xMidYMid meet" viewBox="-30 -30 60 60"><style>path {stroke: #FF0;fill: transparent;stroke-width: 3px;} </style><path d="M11.5147,8.4852 C25.6568,4.3431 14.3431,-4.3431 28.4852,-8.4852"></path><path d="M-18.4852,8.4852 C-4.3431,4.3431 -15.6568,-4.3431 -1.5147,-8.4852"></path><path d="M-8.4852,-21.5147 C5.6568,-25.6568 -5.6568,-34.3431 8.4852,-38.4852"></path><path d="M-8.4852,38.4852 C5.6568,34.3431 -5.6568,25.6568 8.4852,21.5147"></path><path d="M21.5147,-21.5147 C35.6568,-25.6568 24.3431,-34.3431 38.4852,-38.4852"></path><path d="M21.5147,38.4852 C35.6568,34.3431 24.3431,25.6568 38.4852,21.5147"></path><path d="M-38.4852,-21.5147 C-24.3431,-25.6568 -35.6568,-34.3431 -21.5147,-38.4852"></path><path d="M-38.4852,38.4852 C-24.3431,34.3431 -35.6568,25.6568 -21.5147,21.5147"></path></svg>
