<?xml version="1.0" encoding="utf-8"?>
<!-- Generator: Adobe Illustrator 19.0.0, SVG Export Plug-In . SVG Version: 6.00 Build 0)  -->
<svg version="1.2" baseProfile="tiny" id="Ebene_1" xmlns="http://www.w3.org/2000/svg" xmlns:xlink="http://www.w3.org/1999/xlink"
	 x="0px" y="0px" viewBox="0 0 279.2291 103.4181" xml:space="preserve">
<g id="XMLID_23_">
	<g id="XMLID_181_">
		<g vector_effect="non-scaling-stroke" id="XMLID_2_">
			<path id="XMLID_102_" fill="#FFFFFF" d="M68.3277,59.6673c-0.6011,0-1.3999-0.1348-1.3999-1.3003
				c0-1.5322,0-3.1167,0.1011-4.6333c-0.001-0.813,0.3916-1.0386,1.1162-1.1597c0.605-0.1011,1.21-0.1904,1.8149-0.2803
				c1.1694-0.1733,2.3784-0.3521,3.5596-0.6147c2.0601-0.5376,5.125-2.0503,7.1118-3.5142
				c3.4902-2.4336,5.6489-9.0161,6.415-11.7334c0.6294-2.0693,0.9722-4.2544,1.0815-6.8848
				c0.0991-3.5688-0.7192-6.8779-2.4326-9.8286c-1.6787-2.8633-4.2026-4.8242-7.2988-5.6685
				c-1.3877-0.3926-2.7505-0.5908-4.0557-0.5908c-3.4395,0-6.625,1.3696-9.4688,4.0708c-1.8281,1.7261-3.1348,3.793-4.2158,5.5947
				c-1.1519,1.8608-2.0723,3.8955-2.9619,5.8628l-0.3115,0.687c-0.9849,2.0684-1.9995,4.1992-2.8955,6.2896
				c-0.3457,0.6934-0.665,1.374-0.9863,2.0581c-0.541,1.1523-1.1006,2.3433-1.7363,3.4878
				c-1.9424,3.7715-3.9941,6.8477-6.2642,9.3906c-2.9858,3.4287-6.2559,5.7964-9.9932,7.2339
				c-2.0723,0.7891-4.2827,1.2246-6.7578,1.3325c-0.5503,0.0239-1.1064,0.0366-1.665,0.0366c-1.9189,0-3.75-0.1494-5.4424-0.4434
				c-5.0898-0.9546-9.417-3.188-12.8682-6.6392c-2.4536-2.5605-4.2217-5.2974-5.4126-8.373
				c-1.0864-2.7651-1.8159-5.6167-2.2295-8.7148c-0.3633-2.7251-0.4297-5.7017-0.2031-9.0991
				c0.2056-4.0098,0.8457-7.9717,1.5068-11.6553c0.7329-4.0308,3.0049-8.7144,3.9478-10.541l0.0859-0.147
				c0.707-1.2056,1.7998-2.8203,3.1196-2.9219c2.8301-0.1016,4.3052-0.1016,6.5386-0.1016h7.1001
				c0.832,0,1.6909,0.0269,2.521,0.0527c0.7661,0.0239,1.5073,0.0474,2.1792,0.0474c0.561,0,1.5,0,1.5,1V3.367
				c0,0.4116-0.0254,0.7974-0.0513,1.1831c-0.0244,0.3643-0.0488,0.7285-0.0488,1.1167c0,1.3306-0.4883,1.5674-1.6021,1.7905
				c-1.1914,0.1987-2.3975,0.5-3.5635,0.7915c-2.7529,0.7988-5.4092,2.4077-7.8887,4.7793l-0.1528,0.1421
				c-2.7583,2.5601-5.8848,5.4614-7.417,10.249c-0.9131,2.7397-1.1997,5.6816-0.8784,8.9995
				c0.2012,2.6104,0.9082,5.1367,2.0459,7.3169c0.4204,0.8403,1.0244,1.7617,1.8511,2.8242
				c2.1519,2.542,4.9844,4.1426,8.1782,4.6123c0.8374,0.1172,1.6704,0.1768,2.4731,0.1768c3.9463,0,7.4136-1.4268,10.3057-4.2402
				c1.5273-1.5278,2.9028-3.3105,4.3232-5.605c1.6841-2.8735,3.1016-5.9106,4.4722-8.8481c1.2979-2.6958,2.6079-5.418,3.7959-8.0918
				c1.0547-2.3198,2.1763-4.4316,3.4316-6.46c1.3584-2.2983,2.8984-4.3169,4.5718-5.9902
				c3.7139-3.8203,8.0811-6.1572,12.9746-6.9404c1.3267-0.2173,2.6592-0.3271,3.959-0.3271c4.1357,0,8.1304,1.1064,11.8721,3.2896
				c4.1357,2.3081,7.499,5.8408,9.9888,10.4956c2.1235,4.0532,3.2529,8.6362,3.3594,13.625
				c0.2124,0.9111,0.2998,1.5024,0.2998,2.0107c-0.0869,3.6738-0.5601,8.1055-1.4067,13.1821
				c-0.542,2.8657-1.5493,7.4673-2.3589,11.1646l-0.6455,2.959c-0.2417,1.4551-0.5693,1.5947-1.9888,1.5947
				c-2.7671,0.0986-5.605,0.1997-8.3999,0.1997c-1.7383,0.0498-3.4653,0.0752-5.1929,0.1001
				c-1.7227,0.0249-3.4453,0.0498-5.1929,0.1001c-0.3535,0-0.7173,0.0249-1.0811,0.0488
				C69.0748,59.6419,68.6886,59.6673,68.3277,59.6673z"/>
			<path id="XMLID_33_" d="M70.2078,1.3459c4.0762-0.0002,7.9637,1.0883,11.6199,3.2211c4.3,2.4,7.5,6,9.8,10.3
				c2.2,4.2,3.2,8.7,3.3,13.4c0.2001,0.9001,0.3001,1.5001,0.3001,2.0001c-0.1,4.2-0.7,8.9-1.4,13.1c-0.7,3.7-2.2,10.4-3,14.1
				c-0.2,1.2-0.3,1.2-1.5,1.2c-2.8,0.1-5.6,0.2-8.4,0.2c-3.5,0.1-6.9,0.1-10.4,0.2c-0.7,0-1.5,0.1-2.2,0.1c-0.7,0-0.9-0.2-0.9-0.8
				c0-1.5,0-3.1,0.1-4.6c0-0.5,0.1-0.6,0.7-0.7c1.8-0.3,3.6-0.5,5.4-0.9c2.3-0.6,5.4-2.2,7.3-3.6c3.3-2.3,5.5-8.1,6.6-12
				c0.7-2.3,1-4.6,1.1-7c0.1-3.6-0.7-7-2.5-10.1c-1.7-2.9-4.3-5-7.6-5.9c-1.4405-0.4077-2.837-0.6085-4.1869-0.6086
				c-3.6166-0.0001-6.9003,1.4414-9.8131,4.2086c-1.8,1.7-3.1,3.7-4.3,5.7c-1.3,2.1-2.3,4.4-3.3,6.6c-1,2.1-2,4.2-2.9,6.3
				c-0.9,1.8-1.7,3.7-2.7,5.5c-1.7,3.3-3.7,6.5-6.2,9.3c-2.7,3.1-5.9,5.6-9.8,7.1c-2.1,0.8-4.3,1.2-6.6,1.3
				c-0.5429,0.0236-1.0915,0.0361-1.6428,0.0361c-1.7847,0-3.6-0.1305-5.3572-0.4361c-4.8-0.9-9.1-3-12.6-6.5
				c-2.3-2.4-4.1-5.1-5.3-8.2c-1.1-2.8-1.8-5.6-2.2-8.6c-0.4-3-0.4-6-0.2-9c0.2-3.9,0.8-7.7,1.5-11.6c0.6-3.3,2.3-7.3,3.9-10.4
				c0.3-0.5,1.5-2.7,2.8-2.8c2.8-0.1,4.3-0.1,6.5-0.1c0.9,0,5.2,0,7.1,0c1.6,0,3.3,0.1,4.7,0.1c0.8,0,1,0.1,1,0.5c0,0.5,0,0.9,0,1.4
				c0,0.8-0.1,1.5-0.1,2.3c0,1-0.2,1.1-1.2,1.3c-1.2,0.2-2.4,0.5-3.6,0.8c-3.1,0.9-5.8,2.7-8.1,4.9c-2.8,2.6-6.1,5.6-7.7,10.6
				c-1,3-1.2,6.1-0.9,9.2c0.2,2.6,0.9,5.2,2.1,7.5c0.5,1,1.2,2,1.9,2.9c2.2,2.6,5.1,4.3,8.5,4.8
				c0.8636,0.1209,1.7129,0.1822,2.5451,0.1822c3.9861,0,7.594-1.404,10.6549-4.3822c1.7-1.7,3.1-3.6,4.4-5.7
				c1.7-2.9,3.1-5.9,4.5-8.9c1.3-2.7,2.6-5.4,3.8-8.1c1-2.2,2.1-4.3,3.4-6.4c1.3-2.2,2.8-4.2,4.5-5.9c3.5-3.6,7.7-6,12.7-6.8
				C67.6383,1.4525,68.9327,1.346,70.2078,1.3459 M70.2088,0.3459L70.2088,0.3459c-1.3276,0-2.6877,0.1125-4.0425,0.3342
				c-4.9985,0.7997-9.4595,3.1853-13.2555,7.0898c-1.6936,1.6934-3.2594,3.7452-4.6439,6.0883
				c-1.2551,2.0271-2.3869,4.1574-3.4494,6.4949c-1.197,2.6931-2.5151,5.4307-3.7898,8.0782
				c-1.3728,2.9415-2.7861,5.9701-4.4625,8.8298c-1.387,2.2401-2.7397,3.9939-4.2444,5.4986
				c-2.7856,2.7102-6.1358,4.0893-9.9478,4.0893c-0.7791,0-1.5888-0.058-2.4065-0.1725c-3.0649-0.4507-5.7905-1.9918-7.8753-4.4556
				c-0.781-1.0056-1.3682-1.8997-1.769-2.7013c-1.1145-2.1365-1.8025-4.5966-1.9974-7.1295
				c-0.316-3.2672-0.0369-6.1416,0.8516-8.8071c1.4956-4.6736,4.5704-7.5276,7.2833-10.0456l0.1485-0.1378
				c2.4316-2.3257,5.0181-3.8943,7.6984-4.6724c1.1248-0.2805,2.3251-0.5805,3.4856-0.7739
				c1.1671-0.2329,2.0356-0.545,2.0356-2.2864c0-0.3667,0.0232-0.7149,0.0478-1.0835c0.0257-0.3851,0.0522-0.7832,0.0522-1.2165
				v-1.4c0-1.5-1.5053-1.5-2-1.5c-0.661,0-1.391-0.0228-2.1638-0.047c-0.8328-0.026-1.6939-0.053-2.5363-0.053h-7.1
				c-2.2388,0-3.7179,0-6.5357,0.1006C8.0153,0.5881,6.8673,2.2242,6.0388,3.6363L5.9702,3.7525L5.9538,3.78L5.9391,3.8084
				c-1.184,2.294-3.2774,6.7319-3.9952,10.6798c-0.6643,3.7013-1.3073,7.6819-1.5148,11.7277
				c-0.2279,3.4163-0.1603,6.4252,0.2075,9.1834c0.4183,3.1369,1.1577,6.0264,2.2605,8.8335
				c1.2133,3.1344,3.0158,5.9249,5.5088,8.5262c3.539,3.5393,7.9542,5.819,13.1377,6.791c1.7331,0.3015,3.5931,0.4532,5.5415,0.4532
				c0.5542,0,1.1215-0.0124,1.6863-0.037c2.5298-0.11,4.7909-0.5563,6.9126-1.3646c3.818-1.4685,7.1529-3.8813,10.1981-7.3777
				c2.2903-2.565,4.3651-5.6751,6.3349-9.4988c0.6287-1.1306,1.1912-2.3287,1.7352-3.4872c0.32-0.6814,0.6382-1.3594,0.9702-2.0235
				l0.0131-0.0263l0.0116-0.027c0.8924-2.0822,1.9047-4.2081,2.8837-6.264l0.3204-0.7066c0.8831-1.952,1.7963-3.9704,2.927-5.797
				c1.0708-1.7846,2.3548-3.8167,4.1363-5.4994c2.7497-2.6122,5.8196-3.9357,9.1265-3.9356c1.2595,0,2.5765,0.1921,3.9146,0.5708
				c2.9767,0.8119,5.3974,2.6933,7.0096,5.4435c1.664,2.8658,2.4598,6.0856,2.3631,9.5665
				c-0.1074,2.5754-0.4434,4.7204-1.057,6.7366c-0.7577,2.6855-2.8678,9.1378-6.2151,11.4708
				c-1.9642,1.4469-4.956,2.9246-6.9806,3.4528c-1.1296,0.2504-2.3317,0.4284-3.4943,0.6007
				c-0.6059,0.0898-1.2118,0.1796-1.8177,0.2806c-0.752,0.1254-1.5206,0.4202-1.5354,1.6501
				c-0.1002,1.524-0.1002,3.106-0.1002,4.6363c0,0.8211,0.3296,1.8,1.9,1.8c0.3833,0,0.7815-0.0265,1.1665-0.0522
				c0.3686-0.0246,0.7168-0.0478,1.0335-0.0478c1.7722-0.0502,3.5231-0.0756,5.2164-0.1002
				c1.699-0.0246,3.4558-0.0501,5.2122-0.1003c0.0056,0,0.0113,0,0.0169,0c2.782,0,5.6298-0.1017,8.3842-0.2
				c0.0011,0,0.0024,0,0.0034,0c1.5789,0,2.1632-0.295,2.4533-2.0352c0.1763-0.8099,0.3991-1.8278,0.6409-2.9321
				c0.8086-3.6934,1.8149-8.2899,2.3553-11.1464c0.8539-5.122,1.3295-9.5768,1.4172-13.2621
				c0.0003-0.6304-0.1198-1.3137-0.3023-2.1443c-0.1206-5.028-1.2682-9.6516-3.4117-13.7436
				C89.9738,9.6545,86.5439,6.054,82.3151,3.6938C78.5126,1.4755,74.4339,0.3459,70.2088,0.3459L70.2088,0.3459z"/>
		</g>
		<g id="XMLID_3_">
			<path id="XMLID_99_" fill="#FFFFFF" d="M183.5577,59.3909c-0.1118,0.0005-0.2417-0.0088-0.3921-0.0278l-0.5347-0.0361
				c-2.7339-0.1885-5.3169-0.3672-8.02-0.4604c-0.8296-0.0332-1.645-0.0439-2.457-0.0439c-0.8125,0-1.6216,0.0107-2.4346,0.022
				c-0.8242,0.0112-1.6523,0.0225-2.4917,0.0225c-0.4907,0-0.9575,0.0249-1.4238,0.0493c-0.4834,0.0254-0.9668,0.0508-1.4761,0.0508
				l-6.6772,0.2993l-0.8228,0.0005c-0.7183,0-0.9531-0.3511-1.085-0.8789l-0.021-0.187c-0.0986-1.3809-0.1914-2.6855,0.0107-4.1045
				c-0.0049-0.7695,0.6562-0.9351,0.9736-1.0142l0.0601-0.0151h0.4614c0.9722,0,1.9775,0,3.0547-0.0981
				c0.2812-0.002,0.5405-0.0264,0.8003-0.0498c0.2905-0.0264,0.5811-0.0522,0.8452-0.0522
				c1.3125-0.1675,2.2178-1.1006,2.3008-2.4312c0.0972-1.0674,0.1992-2.2827,0.1992-3.3687c0-1.0459-0.0249-2.0669-0.0498-3.0879
				c-0.0254-1.0293-0.0503-2.0581-0.0503-3.1123c-0.1089-3.1528-0.1997-6.0044-0.1997-8.7998
				c-0.0498-1.3345-0.0747-2.7129-0.1001-4.0908c-0.0249-1.3721-0.0498-2.7437-0.0996-4.0908l-0.0454-1.0264
				c-0.0679-1.6426-0.1377-3.3408-0.5386-4.8647c-0.1958-0.8804-0.4795-1.6382-0.7803-2.4404
				c-0.2964-0.7422-0.8481-1.0869-1.7363-1.0869c-0.7275,0-1.3789,0.0854-2.1787,0.2852c-0.3423,0.1318-0.7139,0.2803-1.0854,0.4292
				c-0.353,0.1411-0.7061,0.2822-1.0796,0.4233c-0.103,0.0771-0.2026,0.1152-0.2866,0.147c-0.04,0.0156-0.0874,0.0332-0.146,0.0625
				c-0.1201,0.0601-0.252,0.0918-0.3804,0.0918c-0.1958,0-0.3789-0.0713-0.5166-0.2017c-0.146-0.1382-0.2266-0.3291-0.2266-0.5371
				c-0.0547-0.1826-0.1001-0.3188-0.1001-0.5v-3.1001c0-0.6753,0.2822-1.1323,0.9429-1.5288
				c0.7812-0.3516,1.5088-0.6909,2.2422-1.0337c1.0732-0.501,2.1831-1.019,3.3213-1.4985c3.5854-1.6812,6.6387-3.3701,9.3164-5.1553
				c0.6699-0.4189,1.3804-0.6187,2.1846-0.6187c0.2114,0,0.4268,0.0132,0.6479,0.0376c0.0034,0,0.0068,0,0.0098,0
				c0.3213,0,0.9351,0.1499,0.9351,1.0972c0,0.4414,0.0249,0.9077,0.0493,1.3735c0.0254,0.4839,0.0508,0.9678,0.0508,1.4263
				c0,0.5425,0.0249,1.085,0.0493,1.6274c0.0254,0.5576,0.0508,1.1152,0.0508,1.6729V9.367
				c0.0293,0.1709,0.2329,0.2793,0.4189,0.2793c0.1055,0,0.2104-0.0332,0.3037-0.0952l0.2207-0.2344l0.3022-0.3027
				c0.3193-0.2935,0.6221-0.5776,0.9268-0.8633c0.9014-0.8447,1.833-1.7188,2.8228-2.48c2.7153-2.0371,5.2471-3.334,7.9717-4.0854
				c1.5181-0.4409,3.0244-0.6562,4.5986-0.6562c1.5645,0,3.1543,0.2139,4.8594,0.6543c2.6777,0.749,5.1289,2.0288,7.0986,3.7026
				c2.7393,2.2314,4.6865,4.9507,5.9448,8.3052c0.8828,2.355,1.416,4.853,1.6299,7.6377c0.1973,2.0332,0.3091,4.0913,0.418,6.082
				c0.0571,1.0498,0.1138,2.0923,0.1826,3.123l0.6001,9.8027c0.1011,1.915,0.2007,3.8105,0.3003,5.8057l0.2988,3.6831
				c0.0815,1.543,1.165,2.5498,2.8296,2.6426c1.4888,0.0991,2.8892,0.0991,4.3721,0.0991h0.8003c0.8408,0,1.0059,0.6611,1.085,0.979
				l0.0146,0.0591v0.3618c0.0488,0.5654,0.0742,1.1724,0.0996,1.7793c0.0249,0.5928,0.0493,1.186,0.0986,1.7793
				c0.002,0.4307,0.002,1.4653-1.1079,1.4653c-0.1064,0-0.2261-0.0098-0.3608-0.0288c-1.4297-0.0942-2.9458-0.1953-4.4292-0.1953
				c-1.5391-0.1016-3.1323-0.1997-4.6001-0.1997h-5.1001l-6.5767,0.2993c-0.9937,0.0498-1.9897,0.1245-2.9858,0.1992
				c-1.0039,0.0752-2.0078,0.1504-3.0122,0.2007c-0.001,0-0.0015,0-0.0024,0c-0.8979,0-1.2227-0.3257-1.2227-1.1992
				c-0.0488-0.6182-0.0742-1.249-0.0996-1.8804c-0.0249-0.6187-0.0493-1.2378-0.0991-1.8813l-0.0015-0.2383
				c0-0.8379,0.2715-1.1523,1.1182-1.2935l2.6821-0.0068c0.4756,0,0.9248-0.0791,1.4004-0.1631
				c0.2725-0.0483,0.5483-0.0967,0.8374-0.1328c0.5312-0.1367,0.9463-0.4849,1.3281-1.1523
				c0.5591-0.9321,0.6338-2.0654,0.6338-3.0518c-0.1997-0.9502-0.1997-2.1636-0.1997-3.6997
				c-0.0469-1.4507-0.1167-2.9844-0.188-4.543c-0.0786-1.7358-0.1592-3.5029-0.2119-5.2417
				c-0.1001-1.9985-0.1997-3.9951-0.2998-6.0913c-0.0996-2.5928-0.3013-5.3169-0.499-7.8853
				c-0.2178-2.7266-1.0039-4.7627-2.4741-6.4053c-1.5142-1.7983-3.4722-2.9531-5.8291-3.4443
				c-0.8687-0.1733-1.7412-0.2622-2.5894-0.2622c-1.9116,0-3.7759,0.4341-5.6982,1.3267c-2.4136,1.1621-4.6636,2.7251-7.0742,4.9165
				c-0.3877,0.311-0.5361,0.6616-0.5361,1.23c0.0991,3.084,0.1992,6.1831,0.2993,9.1831c0.0503,1.3511,0.0752,2.6792,0.1006,4.0073
				c0.0249,1.3223,0.0498,2.644,0.0996,3.9907l0.2998,7.2979c0.1006,1.5044,0.1006,3.0381,0.1006,4.521
				c0.0493,0.6196,0.0747,1.2773,0.0996,1.9355c0.0249,0.6421,0.0493,1.2842,0.0986,1.9263
				c0.0015,0.291,0.1284,0.6548,0.2212,0.9204l0.0547,0.1597c0.2046,0.3975,0.5718,0.6924,1.0078,0.7646
				c0.5967,0.0996,1.1597,0.1934,1.8179,0.1934h3.2002c0.9287,0,1.3999,0.2012,1.3999,1.2998
				c0.0488,0.6182,0.0742,1.249,0.0996,1.8804c0.0249,0.6187,0.0493,1.2378,0.0991,1.8813
				C184.628,58.4969,184.628,59.3909,183.5577,59.3909z"/>
			<path id="XMLID_6_" d="M192.1936,1.429c1.5699,0,3.1386,0.2263,4.7343,0.638c2.5,0.7,4.9,1.9,6.9,3.6c2.7,2.2,4.6,4.9,5.8,8.1
				c0.9,2.4,1.4,4.9,1.6,7.5c0.3,3.1,0.4,6.2,0.6,9.2c0.2,3.3,0.4,6.5,0.6,9.8c0.1,1.9,0.2,3.8,0.3,5.8c0.1,1.2,0.2,2.5,0.3,3.7
				c0.1,1.9,1.5,3,3.3,3.1c1.5,0.1,2.9,0.1,4.4,0.1c0.3,0,0.6,0,0.8,0c0.4,0,0.5,0.2,0.6,0.6c0,0.1,0,0.2,0,0.3
				c0.1,1.2,0.1,2.4,0.2,3.6c0,0.6762-0.143,0.9238-0.61,0.9238c-0.0855,0-0.1817-0.0083-0.29-0.0238c-1.5-0.1-3-0.2-4.5-0.2
				c-1.5-0.1-3.1-0.2-4.6-0.2c-1.7,0-3.4,0-5.1,0c-2.2,0.1-4.4,0.2-6.6,0.3c-2,0.1-4,0.3-6,0.4c-0.6,0-0.7-0.1-0.7-0.7
				c-0.1-1.3-0.1-2.5-0.2-3.8c0-0.1,0-0.2,0-0.2c0-0.6,0.1-0.7,0.7-0.8c0.9,0,1.7,0,2.6,0c0.8,0,1.5-0.2,2.3-0.3
				c0.8-0.2,1.3-0.7,1.7-1.4c0.6-1,0.7-2.2,0.7-3.3c-0.2-0.9998-0.2-2.1998-0.2-3.6998c-0.1-3.1-0.3-6.5-0.4-9.8
				c-0.1-2-0.2-4-0.3-6.1c-0.1-2.6-0.3-5.3-0.5-7.9c-0.2-2.5-0.9-4.8-2.6-6.7c-1.6-1.9-3.7-3.1-6.1-3.6
				c-0.9139-0.1828-1.8093-0.2728-2.6918-0.2728c-2.0143,0-3.9612,0.4688-5.9082,1.3728c-2.7,1.3-5,3-7.2,5
				c-0.5,0.4-0.7,0.9-0.7,1.6c0.1,3.1,0.2,6.2,0.3,9.2c0.1,2.7,0.1,5.3,0.2,8c0.1,2.4,0.2,4.9,0.3,7.3c0.1,1.5,0.1,3,0.1,4.5
				c0.1,1.3,0.1,2.6,0.2,3.9c0,0.4,0.2,0.9,0.3,1.2c0.3,0.6,0.8,1,1.4,1.1c0.6,0.1,1.2,0.2,1.9,0.2c1.1,0,2.2,0,3.2,0
				c0.8,0,0.9,0.1,0.9,0.8c0.1,1.3,0.1,2.5,0.2,3.8c0,0.5891-0.0709,0.8242-0.5702,0.8242c-0.094,0-0.2031-0.0083-0.3298-0.0242
				c-2.9-0.2-5.7-0.4-8.6-0.5c-0.8333-0.0333-1.6556-0.0444-2.4741-0.0444c-1.6371,0-3.2592,0.0444-4.9259,0.0444
				c-1,0-1.9,0.1-2.9,0.1c-2.2,0.1-4.5,0.2-6.7,0.3c-0.3,0-0.6,0-0.8,0c-0.4,0-0.5-0.1-0.6-0.5c-0.1-1.4-0.2-2.7,0-4.1
				c0-0.4,0.2-0.5,0.6-0.6c0.1,0,0.3,0,0.4,0c1,0,2,0,3.1-0.1c0.5,0,1.1-0.1,1.6-0.1c1.6-0.2,2.7-1.3,2.8-2.9
				c0.1-1.1,0.2-2.3,0.2-3.4c0-2.1-0.1-4.1-0.1-6.2c-0.1-2.9-0.2-5.9-0.2-8.8c-0.1-2.7-0.1-5.5-0.2-8.2c-0.1-2-0.1-4.1-0.6-6
				c-0.2-0.9-0.5-1.7-0.8-2.5c-0.4-1-1.2-1.4-2.2-1.4c-0.8,0-1.5,0.1-2.3,0.3c-0.8,0.3-1.5,0.6-2.3,0.9c-0.1,0.1-0.2,0.1-0.4,0.2
				c-0.0536,0.0268-0.1072,0.0392-0.1569,0.0392c-0.1359,0-0.2431-0.0928-0.2431-0.2392c0-0.2-0.1-0.3-0.1-0.5c0-1,0-2,0-3.1
				c0-0.5,0.2-0.8,0.7-1.1c1.8-0.8,3.6-1.7,5.5-2.5c3.2-1.5,6.4-3.2,9.4-5.2c0.6202-0.3876,1.2404-0.5349,1.9072-0.5349
				c0.1933,0,0.3905,0.0124,0.5928,0.0349c0.4,0,0.5,0.2,0.5,0.6c0,0.9,0.1,1.9,0.1,2.8c0,1.1,0.1,2.2,0.1,3.3c0,0.1,0,0.3,0,0.4
				c0.0694,0.486,0.4763,0.7792,0.9193,0.7792c0.1951,0,0.3972-0.0568,0.5807-0.1792c0.2-0.2,0.4-0.4,0.6-0.6
				c1.2-1.1,2.4-2.3,3.7-3.3c2.4-1.8,4.9-3.2,7.8-4C189.2322,1.6302,190.7134,1.429,192.1936,1.429 M192.1936,0.429
				c-1.6219,0-3.1739,0.2217-4.7446,0.6777c-2.7736,0.765-5.3582,2.0882-8.1212,4.1603c-1.0184,0.7833-1.9588,1.6653-2.8684,2.5182
				c-0.3035,0.2847-0.6055,0.5678-0.9074,0.8446l-0.4243,0.423V8.967c0-0.5727-0.0259-1.1434-0.051-1.6954
				c-0.0252-0.554-0.049-1.0773-0.049-1.6046c0-0.4763-0.0261-0.9726-0.0514-1.4525c-0.025-0.475-0.0486-0.9237-0.0486-1.3474
				c0-1.1451-0.73-1.5747-1.436-1.5989c-0.2305-0.0242-0.4458-0.036-0.6568-0.036c-0.9005,0-1.6977,0.2247-2.4372,0.6869
				c-2.6814,1.7871-5.7136,3.464-9.2944,5.1426c-1.1112,0.467-2.2256,0.9874-3.3032,1.4906
				c-0.7306,0.3412-1.4545,0.6793-2.1785,1.001l-0.0559,0.0249l-0.0525,0.0315c-0.5089,0.3054-1.1855,0.8405-1.1855,1.9575v3.1
				c0,0.2623,0.0659,0.46,0.1013,0.5662c0.0001,0.0004,0.0003,0.0009,0.0004,0.0013c0.034,0.6624,0.567,1.1718,1.2414,1.1718
				c0.2058,0,0.4147-0.0501,0.6042-0.1448c0.04-0.02,0.0728-0.0316,0.1005-0.0422c0.0854-0.0326,0.2088-0.0797,0.3439-0.169
				c0.355-0.1349,0.6924-0.2698,1.0298-0.4048c0.3515-0.1406,0.703-0.2813,1.0758-0.4219c0.7325-0.1797,1.3346-0.2566,2.0028-0.2566
				c0.8463,0,1.1113,0.3708,1.2715,0.7714c0.288,0.7687,0.5675,1.514,0.7523,2.3455c0.3965,1.5096,0.4653,3.1808,0.5318,4.797
				c0.0143,0.3472,0.0285,0.6931,0.0457,1.036c0.0491,1.3282,0.0745,2.722,0.099,4.0698c0.0247,1.3561,0.0501,2.7584,0.1005,4.1173
				c-0.0007,2.9779,0.1105,6.2047,0.1999,8.7974c-0.0006,1.0278,0.025,2.0761,0.0497,3.09
				c0.0244,1.0018,0.0497,2.0378,0.0497,3.0756c0,1.0649-0.1011,2.2667-0.1959,3.3095c-0.0692,1.1018-0.7677,1.8326-1.8743,1.991
				c-0.2729,0.0038-0.5509,0.0291-0.8203,0.0536c-0.2596,0.0236-0.5048,0.0459-0.7095,0.0459h-0.0453l-0.0452,0.0041
				c-1.0548,0.0959-2.0043,0.0959-3.0095,0.0959h-0.4h-0.1231l-0.1194,0.0299c-0.3283,0.0821-1.3125,0.3282-1.356,1.4898
				c-0.1993,1.4496-0.1053,2.7645-0.0058,4.1554l0.0069,0.0961l0.0062,0.0868l0.0211,0.0844
				c0.1349,0.5399,0.4445,1.2576,1.5701,1.2576h0.8l3.3944-0.151l3.351-0.15c0.0092,0,0.0185,0,0.0278,0
				c0.4722,0,0.9586-0.0256,1.4294-0.0504c0.4751-0.025,0.9238-0.0486,1.3975-0.0486c0.8417,0,1.672-0.0112,2.4987-0.0225
				c0.8103-0.011,1.6169-0.022,2.4273-0.022c0.9037,0,1.6999,0.0143,2.4341,0.0436c2.7121,0.0935,5.3018,0.2725,8.0437,0.462
				l0.5011,0.0346c0.1621,0.0194,0.3029,0.0283,0.4249,0.0283c0.7163,0,1.5702-0.3165,1.5702-1.8241v-0.0384l-0.0029-0.0383
				c-0.0486-0.6318-0.0737-1.2581-0.0979-1.8638c-0.0245-0.6122-0.0498-1.245-0.0994-1.9004
				c-0.0164-1.5489-0.9684-1.7591-1.8998-1.7591h-3.2c-0.6169,0-1.1599-0.0905-1.7348-0.1863
				c-0.3383-0.0564-0.5417-0.3248-0.6442-0.5103l-0.0294-0.0854c-0.067-0.192-0.1917-0.5493-0.1917-0.718v-0.0384l-0.0029-0.0383
				c-0.0486-0.6311-0.0736-1.2824-0.0978-1.9123c-0.0245-0.6359-0.0497-1.293-0.0992-1.9491c0-1.4795-0.0009-3.0083-0.1022-4.5285
				l-0.1487-3.6257l-0.15-3.6494c-0.0495-1.3367-0.0749-2.6796-0.0993-3.9784c-0.0247-1.3069-0.0502-2.6583-0.1005-4.017
				c-0.0998-2.996-0.1999-6.0956-0.2998-9.1952c0.0005-0.438,0.1146-0.6184,0.3252-0.7869l0.0246-0.0197l0.0233-0.0212
				c2.373-2.1573,4.585-3.6949,6.9612-4.8389c1.8421-0.8552,3.6369-1.2738,5.4744-1.2738c0.8154,0,1.6551,0.0852,2.4956,0.2533
				c2.2369,0.4661,4.1005,1.5646,5.5312,3.2636c1.4128,1.5797,2.159,3.5221,2.3681,6.1356
				c0.2057,2.6745,0.3988,5.2907,0.4975,7.8587c0.0993,2.0871,0.1983,4.0672,0.2972,6.0462l0.0033,0.0652
				c0.0519,1.72,0.1328,3.4975,0.211,5.2165c0.071,1.5609,0.1409,3.0971,0.1883,4.5658c-0.0005,1.4844-0.0005,2.6904,0.1992,3.7619
				c-0.0048,0.8949-0.0827,1.9003-0.5573,2.6912c-0.31,0.542-0.61,0.8109-1.0349,0.931c-0.2733,0.0361-0.5361,0.0822-0.7955,0.128
				c-0.4528,0.08-0.8805,0.1555-1.3121,0.1555h-2.6h-0.0827l-0.0816,0.0136c-1.0907,0.1817-1.5357,0.6993-1.5357,1.7864v0.2v0.0384
				l0.0029,0.0383c0.0486,0.6318,0.0737,1.2581,0.0979,1.8638c0.0245,0.6123,0.0498,1.2451,0.0994,1.9005
				c0.0127,1.1315,0.5538,1.6589,1.6998,1.6589c1.0621-0.0519,2.0849-0.1286,3.074-0.2028c0.9774-0.0733,1.9881-0.1491,2.976-0.1985
				l3.2187-0.1463l3.3768-0.1535l5.0546,0.001c1.4461,0,2.9696,0.0936,4.5335,0.1978l0.0332,0.0022h0.0333
				c1.455,0,2.9509,0.099,4.3986,0.1955c0.1449,0.0192,0.2749,0.0283,0.3914,0.0283c0.6013,0,1.61-0.2499,1.61-1.9238v-0.0416
				l-0.0034-0.0415c-0.0483-0.5795-0.0733-1.1792-0.0975-1.7591c-0.0244-0.5864-0.0497-1.1924-0.0991-1.7988v-0.2589v-0.1231
				l-0.0298-0.1194c-0.0839-0.3357-0.3393-1.3575-1.5701-1.3575h-0.8c-1.4742,0-2.8667,0-4.3335-0.0978
				c-0.5389-0.03-2.2688-0.272-2.3679-2.1547c-0.052-0.6294-0.1019-1.2533-0.1518-1.8772
				c-0.0501-0.6261-0.1002-1.2522-0.1503-1.8533c-0.0967-1.9461-0.1957-3.8273-0.2947-5.7075l-0.0033-0.062l-0.3018-4.9308
				l-0.2986-4.8772c-0.0691-1.0374-0.126-2.0806-0.1833-3.1316c-0.1087-1.9927-0.221-4.0532-0.4195-6.1042
				c-0.2161-2.8127-0.7593-5.3558-1.659-7.7548c-1.272-3.392-3.3259-6.26-6.1046-8.5241c-2.0076-1.7068-4.5243-3.0212-7.2621-3.7877
				C195.4313,0.648,193.801,0.429,192.1936,0.429L192.1936,0.429z"/>
		</g>
		<g id="XMLID_4_">
			<path id="XMLID_95_" fill="#FFFFFF" d="M254.128,60.5672c-4.4717,0-8.5562-0.7642-12.4854-2.3359
				c-3.3354-1.3135-6.3823-3.2305-9.0542-5.6968c-4.8281-4.5264-8.0063-10.1646-9.4487-16.7603
				c-0.4785-2.0083-0.7119-4.1401-0.7119-6.5073c0-2.2427,0.3516-4.7759,1.0161-7.3257c1.0103-3.2559,2.2729-6.0117,3.8657-8.4478
				c2.6846-4.0273,6.1401-7.2432,10.2734-9.5625c3.3467-1.835,6.6831-2.8687,10.2031-3.1621
				c1.0439-0.0967,2.1001-0.146,3.1343-0.146c4.3462,0,8.6191,0.8691,12.7012,2.5835c4.1064,1.8027,7.3818,4.5757,10.02,8.481
				c1.5811,2.4233,2.6812,5.002,3.2744,7.6714c0.3828,1.6265,0.582,3.3223,0.7744,4.9629l0.0332,0.2871l0.0039,0.3584
				c0,0.9458-0.2754,1.2588-1.2295,1.395c-0.46,0.0049-0.8496,0.0298-1.2393,0.0542c-0.4102,0.0254-0.8208,0.0508-1.231,0.0508
				c-2.4902,0.1001-4.875,0.1001-7.3999,0.1001c-0.7949,0-1.6152,0.0249-2.4351,0.0498c-0.8301,0.0254-1.6602,0.0503-2.4653,0.0503
				c-3.7495,0.0938-8.0137,0.1997-12.0996,0.1997c-1.1089,0-2.2183,0.0254-3.3145,0.0508c-1.0781,0.0249-2.144,0.0493-3.1855,0.0493
				c-1.1968,0-2.3936,0.0249-3.5898,0.0498c-1.2036,0.0254-2.4072,0.0503-3.6104,0.0503c-0.0605,0-0.146,0-0.1987,0.0049
				l-0.0615,0.0615l-0.1577,0.0264c-0.3145,0.0527-0.3818,0.1021-0.3818,0.5068c0,0.3774,0.0649,0.6924,0.147,1.0908l0.043,0.2114
				c0.5576,3.4556,1.1562,6.3174,2.2744,9.1123c1.0273,2.6714,2.3125,4.9854,3.9312,7.0801c2.585,3.2549,6.124,5.5464,10.231,6.6216
				c1.9771,0.5205,3.9194,0.7842,5.7734,0.7842h0.2676l0.1484,0.2227c0.0396,0.0596,0.2729,0.0986,0.4785,0.1328l0.3037,0.0542
				c0.5918-0.0098,1.374-0.0098,2.2466-0.1069c1.9893-0.1006,3.9756-0.3984,5.9341-0.8877c3.436-0.9165,6.0874-2.0693,8.3364-3.6265
				c0.5063-0.3047,0.8833-0.5879,1.3721-0.979c0.2568-0.1934,0.4707-0.2783,0.6836-0.2783c0.2939,0,0.6748,0.1509,0.8193,0.8701
				c0.0527,0.2661,0.0801,0.5576,0.1074,0.8496c0.0234,0.2578,0.0459,0.5161,0.0928,0.7505
				c0.0557,0.4902,0.082,0.9365,0.1064,1.3711c0.0254,0.439,0.0488,0.8647,0.0986,1.2651c0.0039,0.7173-0.2725,1.2705-0.7959,1.6626
				c-3.4111,2.2749-7.0576,3.979-10.8604,5.0801c-2.2407,0.7168-4.8296,1.1821-7.9014,1.418
				C257.3785,60.4651,255.7442,60.5672,254.128,60.5672z M248.5445,7.5667c-1.4731,0.0005-2.9946,0.2549-4.668,0.7773
				c-2.0293,0.7109-3.7075,1.8066-4.9722,3.252c-1.6694,1.8545-2.8779,4.0503-3.6987,6.7183
				c-0.1875,0.6567-0.2822,1.3198-0.3828,2.022c-0.0181,0.1265-0.0215,0.2964,0.0645,0.3955
				c0.0757,0.0874,0.2319,0.1353,0.4404,0.1353h0.3999c0.3384,0,0.6768-0.0244,1.0146-0.0488
				c0.3618-0.0259,0.7236-0.0513,1.0854-0.0513h3.7002l0.3037-0.0122c2.5151-0.0962,4.8906-0.1875,7.2964-0.1875
				c1.0586,0,2.1172-0.0254,3.1631-0.0508c1.0283-0.0249,2.0449-0.0493,3.0366-0.0493c2.4902-0.1001,4.875-0.1001,7.3999-0.1001
				c0.2783,0,0.519,0,0.7422-0.0742c0.2275-0.0493,0.2578-0.0557,0.2578-0.4258v-0.3486l-0.1328-0.6382
				c-0.2285-1.1167-0.4448-2.1714-0.9209-3.2036c-1.3604-2.7197-3.3193-4.7422-5.9824-6.1685
				c-2.4033-1.2944-4.9604-1.9502-7.6011-1.9502C248.9093,7.5579,248.7276,7.5608,248.5445,7.5667z"/>
			<path id="XMLID_9_" d="M250.9212,1.1228c4.2997-0.0001,8.468,0.848,12.5067,2.5442c4.1,1.8,7.3,4.6,9.8,8.3
				c1.5,2.3,2.6,4.8,3.2,7.5c0.4,1.7,0.6,3.5,0.8,5.2c0,0.1,0,0.2,0,0.3c0,0.7-0.1,0.8-0.8,0.9c-0.8,0-1.6,0.1-2.4,0.1
				c-2.5,0.1-4.9,0.1-7.4,0.1c-1.6,0-3.3,0.1-4.9,0.1c-4,0.1-8.1,0.2-12.1,0.2c-2.2,0-4.4,0.1-6.5,0.1c-2.4,0-4.8,0.1-7.2,0.1
				c-0.2,0-0.4,0-0.5,0.1c-0.6,0.1-0.8,0.4-0.8,1c0,0.5,0.1,0.9,0.2,1.4c0.5,3.1,1.1,6.2,2.3,9.2c1,2.6,2.3,5,4,7.2
				c2.7,3.4,6.3,5.7,10.5,6.8c1.9,0.5,3.9,0.8,5.9,0.8c0.2,0.3001,0.6,0.3001,1.1,0.4001c0.7,0,1.5,0,2.4-0.1c2-0.1,4-0.4,6-0.9
				c3-0.8,5.9-1.9,8.5-3.7c0.5-0.3,0.9-0.6,1.4-1c0.15-0.1125,0.2719-0.1688,0.3709-0.1688c0.165,0,0.2666,0.1562,0.3291,0.4687
				c0.1,0.5,0.1,1.1,0.2,1.6c0.1,0.9,0.1,1.8,0.2,2.6c0,0.5-0.2,0.9-0.6,1.2c-3.3,2.2-6.9,3.9-10.7,5c-2.5,0.8-5.2,1.2-7.8,1.4
				c-1.6,0.1-3.2,0.2-4.8,0.2c-4.2,0-8.3-0.7-12.3-2.3c-3.3-1.3-6.3-3.2-8.9-5.6c-4.8-4.5-7.9-10.1-9.3-16.5
				c-0.5-2.1-0.7-4.2-0.7-6.4c0-2.4,0.4-4.9,1-7.2c0.9-2.9,2.1-5.7,3.8-8.3c2.6-3.9,6-7.1,10.1-9.4c3.1-1.7,6.4-2.8,10-3.1
				C248.8661,1.171,249.8978,1.1229,250.9212,1.1228 M235.3279,21.3671c0.1,0,0.3,0,0.4,0c0.7,0,1.4-0.1,2.1-0.1c1.2,0,2.5,0,3.7,0
				c2.6-0.1,5.1-0.2,7.6-0.2c2.1,0,4.2-0.1,6.2-0.1c2.5-0.1,4.9-0.1,7.4-0.1c0.3,0,0.6,0,0.9-0.1c0.5-0.1,0.6-0.4,0.6-0.9
				c0-0.1,0-0.3,0-0.4c-0.3-1.4-0.5-2.7-1.1-4c-1.4-2.8-3.4-4.9-6.2-6.4c-2.4367-1.3121-5.0496-2.0094-7.8377-2.0094
				c-0.1868,0-0.3739,0.0031-0.5623,0.0094c-1.6,0-3.2,0.3-4.8,0.8c-2,0.7-3.8,1.8-5.2,3.4c-1.8,2-3,4.3-3.8,6.9
				c-0.2,0.7-0.3,1.4-0.4,2.1C234.2279,20.9671,234.6279,21.3671,235.3279,21.3671 M250.922,0.1229L250.922,0.1229
				c-1.0504,0-2.1224,0.05-3.1863,0.1485c-3.5826,0.2985-6.9838,1.3517-10.3886,3.2189c-4.2106,2.362-7.7241,5.6314-10.4512,9.7221
				c-1.6243,2.4841-2.9059,5.2811-3.923,8.5583c-0.6879,2.6331-1.0449,5.2101-1.0449,7.4964c0,2.4072,0.2379,4.5765,0.7272,6.6316
				c1.4607,6.6787,4.6883,12.4036,9.5889,16.9979c2.7229,2.5134,5.8222,4.4633,9.2175,5.8008
				c3.9846,1.5939,8.1295,2.3696,12.6665,2.3696c1.6305,0,3.2723-0.1026,4.8602-0.2018c3.129-0.2406,5.755-0.7131,8.0446-1.4458
				c3.8246-1.1067,7.5177-2.8322,10.9499-5.1204l0.0231-0.0154l0.0222-0.0167c0.6542-0.4907,1-1.1822,1-2v-0.0623l-0.0077-0.0618
				c-0.0472-0.3778-0.071-0.7929-0.096-1.2323c-0.025-0.4375-0.0508-0.89-0.1024-1.354l-0.0048-0.0432l-0.0085-0.0426
				c-0.0396-0.1977-0.0615-0.439-0.0847-0.6946c-0.0269-0.2965-0.0548-0.603-0.1153-0.9053
				c-0.2363-1.1809-1.0622-1.2727-1.3097-1.2727c-0.3224,0-0.64,0.1206-0.9709,0.3687c-0.498,0.3978-0.8608,0.6703-1.3145,0.9425
				l-0.028,0.0168l-0.0268,0.0186c-2.1998,1.5229-4.8017,2.6528-8.1884,3.556c-1.9128,0.4781-3.8667,0.7713-5.7923,0.8675
				l-0.0303,0.0015l-0.0302,0.0033c-0.8059,0.0895-1.5413,0.0937-2.195,0.0939c-0.0748-0.0137-0.1473-0.0259-0.2173-0.0376
				c-0.0718-0.012-0.1609-0.0268-0.2275-0.0407l-0.2144-0.3218h-0.5354c-1.8119,0-3.7113-0.2581-5.6455-0.7671
				c-4.0599-1.0633-7.4144-3.2349-9.9714-6.4548c-1.5805-2.0455-2.8424-4.318-3.8498-6.9371
				c-1.1057-2.7645-1.697-5.5958-2.2461-9.0003l-0.0512-0.2552c-0.079-0.3833-0.136-0.6603-0.136-0.9855
				c0-0.0068,0-0.0133,0.0001-0.0196l0.2804-0.0467l0.0337-0.0337c1.2058-0.0002,2.4262-0.0256,3.6066-0.0502
				c1.1748-0.0245,2.3896-0.0498,3.5792-0.0498c1.0493,0,2.1414-0.0251,3.1975-0.0494c1.0822-0.0249,2.2012-0.0506,3.3025-0.0506
				c4.1105,0,8.3683-0.1064,12.125-0.2003c0.0047,0,0.0095,0,0.0142,0c0.7861,0,1.6274-0.0255,2.4412-0.0501
				c0.8037-0.0243,1.6349-0.0495,2.4197-0.0495c2.5302,0,4.92,0,7.44-0.1008c0.0058,0,0.0116,0,0.0174,0
				c0.3864,0,0.8025-0.026,1.205-0.0512c0.3954-0.0247,0.7688-0.048,1.1376-0.048h0.0711l0.0704-0.0101
				c1.1935-0.1705,1.6585-0.7004,1.6585-1.89v-0.3v-0.0586l-0.0068-0.0582l-0.0316-0.2693
				c-0.1947-1.6601-0.396-3.3768-0.7881-5.0429c-0.6035-2.7158-1.7267-5.35-3.3358-7.8173
				c-2.702-3.9992-6.0472-6.8305-10.2356-8.6694C259.6723,1.0051,255.3344,0.1229,250.922,0.1229L250.922,0.1229z M235.3237,20.367
				c0.0959-0.6706,0.1882-1.3041,0.3657-1.9252c0.793-2.5766,1.9665-4.711,3.5818-6.5058c1.2165-1.3901,2.8239-2.438,4.787-3.1251
				c1.5925-0.4971,3.065-0.7438,4.4696-0.7438c0.2106-0.0065,0.3866-0.0094,0.5623-0.0094c2.5572,0,5.0347,0.6358,7.3636,1.8899
				c2.5706,1.3771,4.4605,3.3285,5.7797,5.9668c0.4385,0.9512,0.6488,1.9779,0.8715,3.0649
				c0.0401,0.1959,0.0806,0.3936,0.1229,0.5932v0.2678c-0.136,0.0269-0.3072,0.0269-0.5,0.0269c-2.5302,0-4.92,0-7.44,0.1008
				c-0.0149,0-0.0299,0-0.0449,0c-0.9474,0-1.9722,0.0247-2.9638,0.0486c-1.0327,0.0249-2.1006,0.0506-3.1514,0.0506
				c-2.4252,0-4.8152,0.092-7.3455,0.1895l-0.2929,0.0113l-3.6616-0.0007c-0.3856,0-0.7596,0.0267-1.1212,0.0525
				c-0.3417,0.0244-0.6644,0.0474-0.9788,0.0474h-0.4C235.3265,20.3671,235.3251,20.367,235.3237,20.367L235.3237,20.367z"/>
		</g>
		<g id="XMLID_7_">
			<path id="XMLID_82_" fill="#FFFFFF" d="M136.2765,59.9607c-1.2012,0-2.0581-0.5942-2.6958-1.8701
				c-0.2671-0.5347-0.4448-1.1284-0.6162-1.7026c-0.0986-0.3291-0.1943-0.6514-0.3047-0.9458
				c-0.0645-0.1924-0.0957-0.3672-0.125-0.543c-0.021-0.1245-0.0396-0.2495-0.0811-0.374c-0.124-0.4316-0.3169-0.4316-0.4097-0.4316
				c-0.0757,0-0.1626,0.0161-0.2578,0.0479l-0.5342,0.2725c-1.9424,1.2993-4.1333,2.6738-6.6318,3.7148
				c-2.793,1.1538-5.4282,1.7144-8.0576,1.7144c-2.0889,0-4.1763-0.3721-6.2046-1.106c-4.6997-1.7749-7.5977-5.1616-8.6196-10.0679
				c-0.4976-2.2891-0.4307-4.5894,0.2056-7.0288c0.6987-2.6929,2.2061-4.9375,4.4805-6.6709
				c2.0439-1.6138,4.3394-2.6577,6.314-3.4653c2.9102-1.104,5.8081-2.2036,8.6069-3.3027l9.6074-3.6025
				c0.6753-0.2256,0.6753-0.2256,0.6753-1.0317c0-1.8125,0-3.6865-0.0991-5.4722c-0.209-2.396-0.8511-4.3569-2.0205-6.1558
				c-1.5215-2.377-3.646-3.5776-6.4971-3.6729c-1.7427,0.0005-3.3745,0.4902-5.4409,1.6377
				c-0.8911,0.4956-1.7319,1.1675-2.3667,1.8926c-0.457,0.6445-0.6562,1.3164-0.5786,2.0151
				c0.0962,0.772,0.1875,1.5073,0.5498,2.2314c0.3169,0.7368,0.6021,1.4023,0.9868,2.0757
				c0.5571,1.1113,0.4058,1.5762-0.6914,2.1851c-0.9243,0.4629-1.855,0.8906-2.7861,1.3184
				c-0.9189,0.4224-1.8384,0.8447-2.7329,1.292c-0.3032,0.1519-0.6323,0.3032-0.9609,0.4551
				c-0.3213,0.1484-0.6426,0.2964-0.939,0.4448c-0.3535,0.1523-0.583,0.2119-0.7944,0.2119
				c-0.6763,0.0005-0.9443-0.626-1.0884-0.9624c-0.6123-1.1323-1.1489-2.5059-1.6216-4.1597
				c-0.395-1.4482-0.4941-2.6284-0.3125-3.7192c0.2002-1.603,0.876-2.9932,2.1245-4.356c1.2339-1.4399,2.7886-2.4761,4.2915-3.478
				c2.9238-1.8403,5.6587-3.3232,8.3726-4.54c1.1201-0.5093,2.3516-0.9199,3.542-1.3164c0.7793-0.2783,1.6426-0.4087,2.7109-0.4087
				c0.604,0,1.2041,0.041,1.7876,0.083c1.9453,0.0918,4.0786,0.5386,6.3291,1.3267c4.7119,1.8037,7.8408,5.2783,9.3149,10.3315
				c0.4844,1.6475,0.7202,3.3623,0.7202,5.2402c0.0669,3,0.0439,6.0049,0.022,8.9111c-0.0107,1.4653-0.022,2.9268-0.022,4.3887
				v13.8003c0,1.3037,0.126,2.4419,0.3848,3.4785c0.1548,0.6187,0.5073,0.9541,1.0771,1.0254
				c0.1509,0.0288,0.2729,0.0371,0.3979,0.0371l0,0c0.3389,0,0.7168-0.0664,1.042-0.1313c0.8228-0.2788,1.7212-0.5786,2.5952-0.9668
				c0.2549-0.1021,0.4922-0.2217,0.7295-0.3403c0.2627-0.1313,0.5254-0.2617,0.7876-0.3672
				c0.2227-0.1128,0.436-0.1733,0.6338-0.1733c0.2563,0,0.8521,0.1108,0.8521,1.1377v3.6001c0,0.7119-0.332,1.1909-1.0142,1.4644
				c-0.5249,0.2388-1.0952,0.5117-1.666,0.7847c-0.5796,0.2773-1.1587,0.5542-1.7129,0.8062l-8.104,3.6021
				c-0.7378,0.3159-1.4634,0.5229-2.1655,0.7236C136.8785,59.9271,136.568,59.9607,136.2765,59.9607z M131.3307,31.3562
				c-0.1255,0-0.2749,0.0288-0.4453,0.0854c-0.1436,0.0776-0.3271,0.1562-0.5107,0.2349c-0.166,0.0713-0.3325,0.1426-0.5229,0.2378
				c-1.7783,0.7632-3.5303,1.4888-5.2822,2.2148c-1.748,0.7241-3.4961,1.4482-5.2446,2.1973
				c-2.0366,0.7925-3.4253,1.7061-4.519,2.9683c-1.104,1.2871-1.5742,2.7324-1.4785,4.5459c0.0908,1.0903,0.4648,2.1182,1.1104,3.04
				c1.3042,2.0063,3.0156,3.2456,5.0967,3.6978c0.6914,0.1328,1.397,0.2017,2.085,0.2017c1.6548,0,3.2554-0.3809,4.8926-1.1641
				c1.4717-0.6924,2.9609-1.5742,4.833-2.8608c0.2896-0.2178,0.3828-0.3813,0.3828-0.688c0-0.2993-0.0264-0.5981-0.0513-0.8838
				c-0.0249-0.2886-0.0483-0.5645-0.0483-0.8164v-5.2998c0.0996-0.8311,0.0996-1.5122,0.0996-2.3003
				c0-0.5366,0.0112-1.0732,0.0225-1.6099c0.0215-1.0386,0.0439-2.1128-0.0215-3.1587
				C131.7276,31.3562,131.4791,31.3562,131.3307,31.3562z"/>
			<path id="XMLID_32_" d="M125.2768,1.5854c0.5913,0,1.1795,0.0408,1.7511,0.0817c2.1,0.1,4.2,0.6,6.2,1.3c4.7,1.8,7.6,5.2,9,10
				c0.5,1.7,0.7,3.4,0.7,5.1c0.1,4.5,0,8.9,0,13.3001c0,4.6,0,9.2,0,13.8c0,1.2,0.1,2.4,0.4,3.6c0.2,0.8,0.7,1.3,1.5,1.4
				c0.1464,0.0293,0.3015,0.0414,0.4601,0.0414c0.3829,0,0.7863-0.0707,1.1399-0.1414c0.9-0.3,1.8-0.6,2.7-1c0.5-0.2,1-0.5,1.5-0.7
				c0.1857-0.0929,0.3331-0.1378,0.4482-0.1378c0.2565,0,0.3518,0.2236,0.3518,0.6378c0,1.2,0,2.4,0,3.6c0,0.5-0.2,0.8-0.7,1
				c-1.1,0.5-2.3,1.1-3.4,1.6c-2.7,1.2-5.4,2.4-8.1,3.6c-0.7,0.3-1.4,0.5-2.1,0.7c-0.3079,0.0616-0.5905,0.0937-0.8513,0.0937
				c-1.0098,0-1.6924-0.481-2.2487-1.5937c-0.4-0.8-0.6-1.8-0.9-2.6c-0.1-0.3-0.1-0.6-0.2-0.9
				c-0.1515-0.5301-0.4751-0.7735-0.8838-0.7735c-0.131,0-0.2706,0.025-0.4162,0.0735c-0.2,0.1-0.4,0.2-0.6,0.3
				c-2.1,1.4-4.2,2.7-6.6,3.7c-2.6156,1.0804-5.2318,1.6758-7.8658,1.6758c-1.9984,0-4.0066-0.3425-6.0342-1.0759
				c-4.5-1.7-7.3-4.9-8.3-9.7c-0.5-2.3-0.4-4.5,0.2-6.8c0.7-2.7,2.2-4.8,4.3-6.4c1.9-1.5,4-2.5,6.2-3.4c2.9-1.1,5.8-2.2,8.6-3.3
				c3.2-1.2,6.4-2.4,9.6-3.6c0.9-0.3,1-0.5,1-1.5c0-1.8,0-3.7-0.1-5.5c-0.2-2.3-0.8-4.4-2.1-6.4c-1.6-2.5-3.9-3.8-6.9-3.9
				c-2.1,0-3.9,0.7-5.7,1.7c-0.9,0.5-1.8,1.2-2.5,2c-0.5,0.7-0.8,1.5-0.7,2.4c0.1,0.8,0.2,1.6,0.6,2.4c0.3,0.7,0.6,1.4,1,2.1
				c0.4,0.8,0.4,1-0.5,1.5c-1.8,0.9-3.7,1.7-5.5,2.6c-0.6,0.3-1.3,0.6-1.9,0.9c-0.2417,0.1036-0.4237,0.1595-0.5709,0.1595
				c-0.2791,0-0.4327-0.2011-0.6291-0.6595c-0.7-1.3-1.2-2.7-1.6-4.1c-0.3-1.1-0.5-2.3-0.3-3.5c0.2-1.6,0.9-2.9,2-4.1
				c1.2-1.4,2.7-2.4,4.2-3.4c2.7-1.7,5.4-3.2,8.3-4.5c1.1-0.5,2.3-0.9,3.5-1.3C123.5563,1.6712,124.4198,1.5854,125.2768,1.5854
				 M121.6188,51.28c1.7782,0,3.4689-0.4284,5.1091-1.2128c1.7-0.8,3.3-1.8,4.9-2.9c0.4-0.3,0.6-0.6,0.6-1.1c0-0.6-0.1-1.2-0.1-1.7
				c-0.0001-1.8-0.0001-3.6-0.0001-5.3c0.1-0.8,0.1-1.5,0.1-2.3c0-1.6,0.1-3.2,0-4.8c0-0.7549-0.3421-1.111-0.8969-1.111
				c-0.1801,0-0.3825,0.0375-0.6031,0.111c-0.4,0.2-0.7,0.3-1.1,0.5c-3.5,1.5-7,2.9-10.5,4.4c-1.8,0.7-3.4,1.6-4.7,3.1
				c-1.2,1.4-1.7,3-1.6,4.9c0.1,1.2,0.5,2.3,1.2,3.3c1.3,2,3.1,3.4,5.4,3.9C120.1738,51.2106,120.9035,51.28,121.6188,51.28
				 M125.2768,0.5854c-1.1281,0-2.0449,0.1398-2.8853,0.4399c-1.1843,0.3945-2.4296,0.8096-3.5775,1.3314
				c-2.7319,1.2247-5.4874,2.7183-8.419,4.5641c-1.5532,1.0351-3.1367,2.0907-4.4265,3.5954
				c-1.2819,1.3977-2.0196,2.9193-2.233,4.6268c-0.1881,1.1234-0.0859,2.3714,0.3275,3.8872
				c0.4802,1.6809,1.0233,3.0751,1.663,4.2714c0.1716,0.3978,0.5593,1.2249,1.5308,1.2249c0.356,0,0.6875-0.1215,0.9648-0.2403
				l0.027-0.0116l0.0263-0.0131c0.2912-0.1456,0.6067-0.291,0.9221-0.4366c0.3346-0.1544,0.6691-0.309,0.9779-0.4634
				c0.885-0.4425,1.8176-0.871,2.7196-1.2854c0.9171-0.4214,1.8655-0.8571,2.7804-1.3146c1.3617-0.7554,1.608-1.5201,0.9472-2.8416
				l-0.0124-0.0248l-0.0138-0.0241c-0.3717-0.6504-0.6522-1.3049-0.9491-1.9978l-0.0116-0.027l-0.0131-0.0263
				c-0.3235-0.647-0.4102-1.3415-0.5021-2.0768c-0.0604-0.5447,0.1006-1.0908,0.4937-1.6553
				c0.5931-0.668,1.3724-1.2869,2.1997-1.7465c1.9861-1.1034,3.5455-1.5742,5.2144-1.5742c2.6411,0.0886,4.6335,1.2137,6.0578,3.439
				c1.1266,1.7332,1.7437,3.6213,1.946,5.9476c0.0962,1.7411,0.0962,3.608,0.0962,5.4134c0,0.2311-0.007,0.3631-0.015,0.4385
				c-0.0555,0.025-0.1483,0.0618-0.3012,0.1128l-9.6349,3.6123c-2.8144,1.1055-5.7574,2.2218-8.6035,3.3013
				c-2.0316,0.8308-4.3668,1.8937-6.465,3.5501c-2.3526,1.7923-3.9211,4.1288-4.6483,6.934
				c-0.6562,2.5154-0.7248,4.8917-0.2092,7.2634c1.0575,5.0761,4.0605,8.5858,8.9238,10.423
				c2.0963,0.7584,4.241,1.1404,6.3876,1.1404c2.6588,0,5.4337-0.5893,8.2476-1.7516c2.5206-1.0503,4.7195-2.4248,6.721-3.7576
				l0.0944-0.0472l0.3345-0.1672c0.0022,0.007,0.0045,0.0146,0.0068,0.0226c0.0381,0.1171,0.0553,0.2203,0.0752,0.3398
				c0.028,0.1681,0.0629,0.3773,0.1377,0.6017c0.1147,0.3077,0.2079,0.6194,0.3065,0.9494
				c0.1777,0.5943,0.3613,1.2088,0.6478,1.7817c0.7221,1.4443,1.7502,2.1464,3.1431,2.1464c0.3244,0,0.667-0.037,1.0474-0.1131
				l0.0397-0.0079l0.0393-0.0112c0.7181-0.2052,1.4606-0.4174,2.2188-0.7423l8.1122-3.6053
				c0.5636-0.2561,1.1447-0.534,1.7259-0.8119c0.5689-0.2721,1.1377-0.5442,1.6818-0.7915
				c0.8268-0.3296,1.2862-0.9964,1.2862-1.9104v-3.6c0-1.5919-1.2135-1.6378-1.3518-1.6378c-0.2679,0-0.5411,0.0714-0.8567,0.2244
				c-0.2749,0.1122-0.5359,0.2427-0.7887,0.369c-0.238,0.119-0.4628,0.2314-0.6742,0.316c-0.8711,0.3864-1.705,0.6665-2.5849,0.9598
				c-0.2871,0.0562-0.6089,0.11-0.8836,0.11c-0.1022,0-0.191-0.0074-0.264-0.022l-0.0358-0.0071l-0.0362-0.0045
				c-0.3044-0.0381-0.5322-0.1632-0.6539-0.6503c-0.2491-0.9961-0.3702-2.0943-0.3702-3.3574v-13.8
				c0-1.4605,0.011-2.9209,0.0221-4.3851c0.022-2.9097,0.0447-5.9185-0.0224-8.9372c0.0002-1.9049-0.242-3.6655-0.7404-5.36
				c-1.5194-5.2092-4.7501-8.7936-9.6017-10.6517c-2.3233-0.8136-4.5045-1.2695-6.5101-1.365
				C126.5467,0.6301,125.9205,0.5854,125.2768,0.5854L125.2768,0.5854z M131.1018,31.8976
				c0.0482-0.0142,0.0888-0.0236,0.1223-0.0298c0.0023,0.0278,0.0037,0.0607,0.0037,0.0992v0.0312l0.002,0.0312
				c0.064,1.0251,0.0429,2.0411,0.0205,3.1168c-0.0113,0.5403-0.0224,1.0805-0.0224,1.6208c0,0.7715,0,1.4378-0.0923,2.176
				l-0.0077,0.0618v0.0622l0.0001,5.3001c0,0.2821,0.0256,0.5759,0.0503,0.8601c0.0244,0.2801,0.0496,0.5698,0.0496,0.8399
				c0,0.1212,0,0.15-0.1999,0.2999c-1.8145,1.2464-3.2823,2.1159-4.7259,2.7952c-1.5744,0.7529-3.1045,1.1177-4.6833,1.1177
				c-0.6562,0-1.3298-0.0656-2.0021-0.1948c-1.9237-0.4185-3.5299-1.5852-4.7504-3.463c-0.6216-0.889-0.9561-1.808-1.0419-2.838
				c-0.0862-1.6467,0.3461-2.9802,1.3627-4.1662c1.0343-1.1934,2.3626-2.064,4.3032-2.8188
				c1.7759-0.7605,3.5523-1.4964,5.2703-2.2082c1.7235-0.714,3.5056-1.4523,5.2612-2.2047l0.027-0.0116l0.0263-0.0132
				c0.1806-0.0903,0.3387-0.1576,0.4967-0.2253C130.7422,32.0632,130.9124,31.9899,131.1018,31.8976L131.1018,31.8976z"/>
		</g>
	</g>
	<g id="XMLID_135_">
		<g id="XMLID_10_">
			<path id="XMLID_40_" fill="#FFFFFF" d="M6.7276,102.6673c-1.2339,0-2.5532-0.1733-3.9209-0.5151l-0.3789-0.0942v-3.6255
				l0.7773,0.5186c1.1982,0.7988,2.3848,1.5161,3.7227,1.5161c0.7842,0,2.1001-0.1948,2.1001-1.5
				c0-1.0229-1.1997-1.6934-2.5884-2.4697c-1.7871-0.9995-4.0117-2.2432-4.0117-4.8301c0-2.7759,2.1074-4.5,5.5-4.5
				c1.0122,0,2.0986,0.1587,3.5215,0.5151l0.3784,0.0947v3.5718l-0.7939-0.5776c-0.9316-0.6772-1.9771-1.3042-3.3062-1.3042
				c-0.7295,0-1.5996,0.208-1.5996,1.2002c0,0.9336,1.1289,1.5645,2.4355,2.2949c1.855,1.0371,4.1641,2.3276,4.1641,5.2051
				C12.6344,100.991,10.3912,102.6673,6.7276,102.6673z"/>
			<path id="XMLID_31_" d="M7.9278,87.6671c1.1,0,2.2,0.2,3.4,0.5v2.2c-1.1-0.8-2.2-1.4-3.6-1.4c-1,0-2.1,0.4-2.1,1.7
				c0,2.8,6.6,2.9,6.6,7.5c-0.1,3-2.8,4-5.5,4c-1.3,0-2.6-0.2-3.8-0.5v-2.3c1.2,0.8,2.5,1.6,4,1.6c1.3,0,2.6-0.5,2.6-2
				c0-2.9-6.6-3.1-6.6-7.3C2.9278,88.7671,5.3278,87.6671,7.9278,87.6671 M7.9278,86.6671c-3.7009,0-6,1.9159-6,5
				c0,2.8805,2.3663,4.2035,4.2677,5.2665c1.1994,0.6706,2.3323,1.3039,2.3323,2.0335c0,0.6636-0.5383,1-1.6,1
				c-1.198,0-2.3133-0.6774-3.4453-1.432l-1.5547-1.0364v1.8685v2.3v0.7808l0.7575,0.1894
				c1.4064,0.3516,2.7665,0.5299,4.0425,0.5299c3.9661,0,6.3958-1.8567,6.4995-4.9667c0.0005-3.204-2.5542-4.6319-4.4197-5.6745
				c-1.121-0.6265-2.1798-1.2183-2.1798-1.8588c0-0.1915,0-0.7,1.1-0.7c1.1202,0,2.0142,0.4832,3.0118,1.2088l1.5882,1.155v-1.9637
				v-2.2v-0.7808l-0.7575-0.1894C10.1046,86.8305,8.9812,86.6671,7.9278,86.6671L7.9278,86.6671z"/>
		</g>
		<g id="XMLID_11_">
			<path id="XMLID_37_" fill="#FFFFFF" d="M60.128,102.5672c-2.7905,0-5.1001-0.3311-5.1001-4.3999v-8.7002h-2.3003v-2.2002h2.3003
				v-2.0225l4-3.6001v5.6226h3.8999v2.2002h-3.8999v8.2998c0,1.9814,0.0791,2.5,2,2.5c0.3535,0,0.7192,0,0.9429-0.0742
				l0.6572-0.2183v2.3262l-0.6611,0.0947C61.359,102.4837,60.7853,102.5672,60.128,102.5672z"/>
			<path id="XMLID_30_" d="M58.5278,82.7671v5h3.9v1.2h-3.9v0.1v8.7c0,2,0.1,3,2.5,3c0.4,0,0.8,0,1.1-0.1v1.2
				c-0.7,0.1-1.3,0.2-2,0.2c-3,0-4.6-0.5-4.6-3.9v-9.2h-2.3v-1.2h2.3v-2.3L58.5278,82.7671 M59.5278,80.5217l-1.669,1.5021l-3,2.7
				l-0.331,0.2979v0.4454v1.3h-1.3h-1v1v1.2v1h1h1.3v8.2c0,4.5217,2.7665,4.9,5.6,4.9c0.6932,0,1.2844-0.0858,1.9102-0.1767
				l0.2312-0.0334l0.8586-0.1226v-0.8673v-1.2v-1.3873l-1.3162,0.4386c-0.1461,0.0487-0.4997,0.0487-0.7839,0.0487
				c-1.5,0-1.5-0.113-1.5-2v-7.8h2.9h1v-1v-1.2v-1h-1h-2.9v-4V80.5217L59.5278,80.5217z"/>
		</g>
		<g id="XMLID_12_">
			<path id="XMLID_89_" fill="#FFFFFF" d="M108.7276,102.6673c-4.5,0-4.5-4.458-4.5-6.6001v-4.3003
				c0-1.7095-0.1685-2.1172-1.8247-2.2002l-0.4751-0.0239v-1.4902l6.2998-1.1885v9.603c0,2.6592,1.0688,3,2,3
				c1.9546,0,2.8003-2.98,2.8003-4.5v-3.2998c0-1.71-0.1685-2.1177-1.8252-2.2007l-0.4751-0.0239v-1.3901l6.3003-1.1885v15.4028
				h-3.6001v-0.3999h-0.5v-1.5161C111.902,101.8738,110.4747,102.6673,108.7276,102.6673z"/>
			<path id="XMLID_15_" d="M116.5279,87.4671v14.3h-3.1v-3.3h-0.1c-0.8,2.1-2.2,3.7-4.6,3.7c-3.7,0-4-3.2-4-6.1v-4.3
				c0-1.9-0.3-2.6-2.3-2.7v-0.6l5.3-1v9c0,1.7,0.4,3.5,2.5,3.5c2.3,0,3.3-3.2,3.3-5v-3.3c0-1.9-0.3-2.6-2.3-2.7v-0.5
				L116.5279,87.4671 M113.4278,101.7671v0.1V101.7671 M117.5279,86.2608l-1.1854,0.2237l-5.3,1l-0.8146,0.1537v0.829v0.5v0.9512
				l0.95,0.0475c1.2548,0.0628,1.3499,0.1054,1.3499,1.7013v3.3c0,1.396-0.7899,4-2.3,4c-0.561,0-1.5,0-1.5-2.5v-9v-1.2063
				l-1.1854,0.2237l-5.3,1l-0.8146,0.1537v0.829v0.6v0.9512l0.95,0.0475c1.2548,0.0628,1.35,0.1055,1.35,1.7013v4.3
				c0,2.1246,0,7.1,5,7.1c1.1219,0,2.496-0.303,3.7-1.4393v0.0393v1h1h3.1h1v-1v-14.3V86.2608L117.5279,86.2608z"/>
		</g>
		<g id="XMLID_13_">
			<path id="XMLID_85_" fill="#FFFFFF" d="M164.4278,102.6673c-3.6943,0-5.8999-2.8037-5.8999-7.5c0-3.916,1.5762-8.1001,6-8.1001
				c1.4951,0,2.6836,0.4492,3.6001,1.3662V84.867c0-1.6602-0.2148-2.1211-1.7266-2.2002l-0.4736-0.0249v-1.5034l6.2002-0.9546
				v22.083h-3.6001v-0.3999h-0.5v-0.5591C166.9991,102.1634,165.9322,102.6673,164.4278,102.6673z M165.3277,89.6673
				c-1.7056,0-2.5,1.5889-2.5,5c0,3.6157,0.8262,5.2998,2.6001,5.2998c2.437,0,2.7002-3.3564,2.7002-4.7998v-0.7002h-0.1001v-0.5
				C168.0279,91.1141,167.1192,89.6673,165.3277,89.6673z"/>
			<path id="XMLID_18_" d="M171.6278,80.7671v21h-3.1v-1.6c-1.2,1.2-2.3,2-4.1,2c-4,0-5.4-3.5-5.4-7s1.3-7.6,5.5-7.6
				c1.8,0,3.1,0.7,4,2.2h0.1v-4.9c0-1.8-0.3-2.6-2.2-2.7v-0.6L171.6278,80.7671 M165.4278,100.4671c2.7,0,3.2-3.3,3.2-5.3v-1.2h-0.1
				c0-2.1-0.5-4.8-3.2-4.8c-2.8,0-3,3.5-3,5.5C162.3278,96.7671,162.5278,100.4671,165.4278,100.4671 M168.5278,101.7671v0.1
				V101.7671 M172.6278,79.6015l-1.1521,0.1772l-5.2,0.8l-0.8479,0.1304v0.8579v0.6v0.9487l0.9474,0.0499
				c1.1107,0.0585,1.2526,0.1265,1.2526,1.7014v2.5317c-0.8679-0.553-1.9037-0.8316-3.1-0.8316c-4.7924,0-6.5,4.4425-6.5,8.6
				c0,4.9346,2.4523,8,6.4,8c1.2837,0,2.2791-0.3624,3.1-0.8741v0.4742h1h3.1h1v-1v-21V79.6015L172.6278,79.6015z M165.4278,99.4671
				c-0.9015,0-2.1-0.4976-2.1-4.8c0-4.0335,1.1414-4.5,2-4.5c0.5441,0,2.2,0,2.2,3.8v1h0.1v0.2
				C167.6278,96.1758,167.4691,99.4671,165.4278,99.4671L165.4278,99.4671z"/>
		</g>
		<g id="XMLID_16_">
			<path id="XMLID_77_" fill="#FFFFFF" d="M215.628,102.2669v-0.3999h-0.5v-10c0-1.71-0.1685-2.1177-1.8252-2.2002l-0.4751-0.0239
				v-1.5903l6.3003-1.1885v15.4028H215.628z M217.128,85.6673c-1.2788,0-2.4004-1.1216-2.4004-2.4004
				c0-1.2783,1.1216-2.3999,2.4004-2.3999c1.3232,0,2.3999,1.0767,2.3999,2.3999c0.0547,0.5771-0.1416,1.1694-0.5542,1.6211
				C218.5216,85.3831,217.8487,85.6673,217.128,85.6673z"/>
			<path id="XMLID_21_" d="M217.1279,81.3671c1,0,1.9,0.8,1.9,1.9c0.1,1.1-0.8,1.9-1.9,1.9c-1,0-1.9-0.9-1.9-1.9
				S216.1279,81.3671,217.1279,81.3671 M218.6279,87.4671v14.3h-3v-9.9c0-1.9-0.3-2.6-2.3-2.7v-0.7L218.6279,87.4671
				 M215.6279,101.7671v0.1V101.7671 M217.1279,80.3671c-1.5449,0-2.9,1.3551-2.9,2.9c0,1.5449,1.3551,2.9,2.9,2.9
				c0.861,0,1.6684-0.3433,2.215-0.9418c0.4985-0.5459,0.7408-1.2558,0.6847-2.0035
				C220.0032,81.6435,218.7118,80.3671,217.1279,80.3671L217.1279,80.3671z M219.6279,86.2608l-1.1854,0.2237l-5.3,1l-0.8146,0.1537
				v0.829v0.7v0.9512l0.9501,0.0475c1.2547,0.0628,1.3499,0.1054,1.3499,1.7013v9.9v1h1h3h1v-1v-14.3V86.2608L219.6279,86.2608z"/>
		</g>
	</g>
	<g id="XMLID_24_">
		<g id="XMLID_19_">
			<path id="XMLID_260_" fill="#FFFFFF" d="M270.2276,102.6673c-4.5796,0-7-2.6973-7-7.8003c0-5.2485,2.2896-7.7998,7-7.7998
				c4.3833,0,7,2.916,7,7.7998C277.2276,100.116,274.9381,102.6673,270.2276,102.6673z M270.2276,89.0672
				c-2.3789,0-2.6997,2.9316-2.6997,5.7998s0.3208,5.8003,2.6997,5.8003c2.4917,0,2.7002-2.8652,2.7002-5.8003
				C272.9278,91.9988,272.607,89.0672,270.2276,89.0672z"/>
			<path id="XMLID_255_" d="M270.2278,87.5671c4.5,0,6.5,3.2,6.5,7.3c0,4.5-1.7,7.3-6.5,7.3c-4.7,0-6.5-2.9-6.5-7.3
				C263.7278,90.3671,265.4278,87.5671,270.2278,87.5671 M270.2278,101.167c3.2,0,3.2-4,3.2-6.3c0-2.2-0.1-6.3-3.2-6.3
				c-3.1,0-3.2,4.1-3.2,6.3S267.1278,101.167,270.2278,101.167 M270.2278,86.5671c-4.9767,0-7.5,2.7925-7.5,8.3
				c0,6.86,4.0785,8.3,7.5,8.3c4.9767,0,7.5-2.7925,7.5-8.3C277.7278,89.7475,274.854,86.5671,270.2278,86.5671L270.2278,86.5671z
				 M270.2278,100.167c-1.5421,0-2.2-1.585-2.2-5.3s0.658-5.3,2.2-5.3s2.2,1.585,2.2,5.3
				C272.4278,98.1391,272.0598,100.167,270.2278,100.167L270.2278,100.167z"/>
		</g>
	</g>
</g>
</svg>
